<svg viewBox="0 0 440 440" xmlns="http://www.w3.org/2000/svg">
  <defs>
    <linearGradient id="gradient" x1="0%" y1="0%" x2="100%" y2="0%">
      <stop offset="0%" stop-color="#FFF1BD" stop-opacity="1" />
      <stop offset="100%" stop-color="#FF0066" stop-opacity="1" />
    </linearGradient>
  </defs><path d="M220,414.59847620804794C245.00737079294973,416.29347877356264,271.1126591389284,404.167718802172,289.02076092299114,386.63085710559625C306.8947586871211,369.12739244283625,301.48624115476497,336.82594541270214,318.31832161037005,318.3183216103701C334.09209889393503,300.97434938566636,362.2741180194867,301.4569247091133,380.2120237421056,286.36199308922045C402.3983509537313,267.6919712185088,431.73301718932265,248.7941056594424,435.15388127125334,220C438.4363619631809,192.37069535510525,407.82934004647234,172.3111902397293,396.7963258599795,146.76856405106332C385.92372856354666,121.59732038651009,388.54433141413455,90.17327238643907,370.252876121472,69.74712387852799C351.9732444706073,49.33417888337202,324.01859839209527,33.51209159616183,296.6544771865136,34.939721559699834C267.17127505225653,36.477907364085425,249.50823782218168,76.6431228351966,220,77.58605670765974C191.84996832825246,78.48558918852673,173.50981987481646,40.17310992582893,145.34823764613844,39.77470287025413C118.951968999772,39.40127002886885,96.3234351796323,59.26201537800628,75.54238845047612,75.5423884504761C53.629042456999194,92.70983206819237,32.08776766428157,112.04634745093323,20.68321754114928,137.44028549697606C9.21584141687992,162.9741150392489,6.512735458726995,192.31914241546377,10.665721090044826,219.99999999999994C14.668707990996422,246.6810724030469,33.73413294867589,267.95130871651776,44.0068030391544,292.8987690665817C54.29885454755788,317.893297720305,50.245318272823496,351.8645447465369,71.72233726301613,368.2776627369838C94.06254786619648,385.35044703395124,127.91105555638565,369.1459367020884,154.7489790378061,377.52989976561935C178.85769711306241,385.0612798290568,194.8001084828393,412.89042456495713,220,414.59847620804794" fill="url(#gradient)" />
</svg>