<svg id="visual" viewBox="0 0 1800 950" width="1800" height="950" xmlns="http://www.w3.org/2000/svg" xmlns:xlink="http://www.w3.org/1999/xlink" version="1.1"><rect x="0" y="0" width="1800" height="950" fill="#262745"></rect><defs><linearGradient id="grad1_0" x1="47.2%" y1="100%" x2="100%" y2="0%"><stop offset="12.105263157894738%" stop-color="#262745" stop-opacity="1"></stop><stop offset="87.89473684210526%" stop-color="#262745" stop-opacity="1"></stop></linearGradient></defs><defs><linearGradient id="grad2_0" x1="0%" y1="100%" x2="52.8%" y2="0%"><stop offset="12.105263157894738%" stop-color="#262745" stop-opacity="1"></stop><stop offset="87.89473684210526%" stop-color="#262745" stop-opacity="1"></stop></linearGradient></defs><g transform="translate(1800, 950)"><path d="M-902.5 0C-856.7 -81.8 -811 -163.5 -791.3 -257.1C-771.6 -350.7 -777.9 -456.1 -730.1 -530.5C-682.4 -604.8 -580.6 -648.2 -490.8 -675.5C-401 -702.9 -323.3 -714.3 -243.5 -749.4C-163.7 -784.6 -81.9 -843.5 0 -902.5L0 0Z" fill="#000000"></path></g><g transform="translate(0, 0)"><path d="M902.5 0C809 65.1 715.5 130.3 703.8 228.7C692 327.1 762.1 458.8 730.1 530.5C698.2 602.2 564.3 613.9 472 649.6C379.7 685.4 328.8 745.1 257.1 791.3C185.4 837.4 92.7 870 0 902.5L0 0Z" fill="#000000"></path></g></svg>