
<svg id="visual" viewBox="0 0 900 600" width="900" height="600" xmlns="http://www.w3.org/2000/svg" xmlns:xlink="http://www.w3.org/1999/xlink" version="1.1"><g transform="translate(420.04966500462217 302.5424898846444)"><path d="M61 -64.6C98 -41.8 159.8 -40.4 174.7 -21.1C189.6 -1.9 157.6 35.3 132.3 73.8C107 112.2 88.4 152 62.1 154.6C35.8 157.2 1.8 122.8 -19 96.2C-39.9 69.6 -47.7 50.8 -61.8 32.6C-76 14.4 -96.6 -3.1 -108.7 -33.8C-120.8 -64.6 -124.3 -108.5 -104.8 -134.4C-85.3 -160.3 -42.6 -168.1 -15.3 -149.9C12.1 -131.7 24.1 -87.4 61 -64.6" fill="#4628d9"></path></g></svg>