<svg id="visual" viewBox="0 0 900 600" width="900" height="600" xmlns="http://www.w3.org/2000/svg" xmlns:xlink="http://www.w3.org/1999/xlink" version="1.1"><g transform="translate(460.05409718161206 306.03909227449077)"><path d="M118.9 -151.1C146.4 -118.5 155.9 -73.8 157.5 -32.6C159 8.7 152.6 46.5 136.9 84C121.1 121.4 96.1 158.4 59.9 177.1C23.6 195.8 -23.9 196.1 -67.8 182C-111.7 167.9 -152 139.5 -168.3 101.8C-184.6 64 -177 17.1 -167.5 -28.2C-157.9 -73.5 -146.5 -117.2 -118.2 -149.7C-90 -182.2 -45 -203.6 0.3 -204C45.6 -204.4 91.3 -183.8 118.9 -151.1" fill="#BB004B"></path></g></svg>