<?xml version="1.0" encoding="UTF-8"?>
<svg id="Layer_4" data-name="Layer 4" xmlns="http://www.w3.org/2000/svg" viewBox="0 0 2369.23 1245.43">
  <defs>
    <style>
      .cls-1 {
        fill:#303060;
        stroke: #000;
        stroke-miterlimit: 10;
      }
    </style>
  </defs>
  <path class="cls-1" d="M2368.66,45.67c-2.35-8.41-56.54,11.42-123,9-115.62-4.2-147.79-71.32-218-50-53.49,16.24-41.12,57.11-100,76-55.79,17.9-80.5-14.42-184-9-46.58,2.44-69.87,3.66-90,16-63.94,39.2-50.82,105.36-104,147-46.09,36.09-65.96,22.21-95,56-47.84,55.66-8.84,110.67-48,152-43.91,46.34-106.45-8.55-199,35-54.47,25.63-89.16,71.15-134,130-35.06,46.01-44.6,71.68-88,113-7.83,7.45-36.38,34.09-80,61-16.83,10.38-70.7,42.3-143,61-136.42,35.29-158.81-22.92-263,10-80.58,25.46-60,58-194,123-27.5,13.34-67.78,31.09-104,73-26.1,30.2-22.84,41.42-44,71-61.65,86.18-161.7,105.24-157,120,2.77,8.67,38.31,4.6,60,2,71.75-8.6,125.52-29.38,155-41,146.35-57.67,133.5-54.37,146-58,73.19-21.23,135.65-24.47,204-28,47.47-2.45,87.1-1.97,115-1,65.55-13.88,113.99-26.1,130.34-32.07,7.7-2.82,14.66-5.93,14.66-5.93,52.97-24.06,42.13-35.33,145-101,66.77-42.63,106.84-68.21,155-86,138.43-51.13,183.05,21.47,325-21,40.12-12,140.49-42.03,199-130,43.25-65.03,28.6-109.04,83-154,50-41.32,83.12-21.28,134-67,43.98-39.52,26.53-61.05,73-122,9.06-11.88,13.66-15.4,20.95-23.84,19.68-22.79,22.58-38.13,34.05-57.16,19.25-31.96,40.9-25.25,56-54,14.27-27.18-3.84-40.41,9-65,11.9-22.79,37.46-30.56,84-44,60.59-17.49,71.29-6.75,108-26,20.51-10.75,17.29-14.17,59-41,40.5-26.05,59.39-33.03,58-38Z"/>
</svg>