
  <svg viewBox="0 0 200 200" xmlns="http://www.w3.org/2000/svg">
      <linearGradient id="PSgrad_0" x1="70.711%" x2="0%" y1="70.711%" y2="0%">

     <stop offset="0%" style="stop-color:#efce9ac6; stop-opacity:1.00" />
    
     <stop offset="8%" style="stop-color:   #ffc2c8;stop-opacity:1.00" />
<!--  
     <stop offset="100%" style="stop-color:  #7759ffa2;stop-opacity:1.00" /> -->
   
  
 
    </linearGradient>
  <path fill="url(#PSgrad_0)" d="M45.9,-72C57.4,-64,63.3,-47.8,68.6,-32.4C73.8,-17.1,78.4,-2.6,75.3,9.9C72.1,22.4,61.1,32.9,50.5,42.1C40,51.3,29.8,59.2,17.9,64.2C6,69.2,-7.8,71.3,-19,67C-30.3,62.7,-39,52,-49.5,41.8C-59.9,31.6,-72.2,21.9,-73.9,10.6C-75.6,-0.7,-66.8,-13.6,-61.1,-28.7C-55.4,-43.8,-52.9,-61.1,-43.3,-69.9C-33.6,-78.7,-16.8,-79.1,0.2,-79.4C17.2,-79.7,34.4,-79.9,45.9,-72Z" transform="translate(100 100)" />
</svg>