<!-- 
  <svg  xmlns="http://www.w3.org/2000/svg" x="0px" y="0px" viewBox="0 0 288 288">

    <path fill="url(#PSgrad_0)">
        <animate  repeatCount="indefinite" attributeName="d" dur="20s" fill="freeze" values="M37.5,186c-12.1-10.5-11.8-32.3-7.2-46.7c4.8-15,13.1-17.8,30.1-36.7C91,68.8,83.5,56.7,103.4,45 c22.2-13.1,51.1-9.5,69.6-1.6c18.1,7.8,15.7,15.3,43.3,33.2c28.8,18.8,37.2,14.3,46.7,27.9c15.6,22.3,6.4,53.3,4.4,60.2 c-3.3,11.2-7.1,23.9-18.5,32c-16.3,11.5-29.5,0.7-48.6,11c-16.2,8.7-12.6,19.7-28.2,33.2c-22.7,19.7-63.8,25.7-79.9,9.7 c-15.2-15.1,0.3-41.7-16.6-54.9C63,186,49.7,196.7,37.5,186z; M51,171.3c-6.1-17.7-15.3-17.2-20.7-32c-8-21.9,0.7-54.6,20.7-67.1c19.5-12.3,32.8,5.5,67.7-3.4C145.2,62,145,49.9,173,43.4 c12-2.8,41.4-9.6,60.2,6.6c19,16.4,16.7,47.5,16,57.7c-1.7,22.8-10.3,25.5-9.4,46.4c1,22.5,11.2,25.8,9.1,42.6 c-2.2,17.6-16.3,37.5-33.5,40.8c-22,4.1-29.4-22.4-54.9-22.6c-31-0.2-40.8,39-68.3,35.7c-17.3-2-32.2-19.8-37.3-34.8 C48.9,198.6,57.8,191,51,171.3z; M37.5,186c-12.1-10.5-11.8-32.3-7.2-46.7c4.8-15,13.1-17.8,30.1-36.7C91,68.8,83.5,56.7,103.4,45 c22.2-13.1,51.1-9.5,69.6-1.6c18.1,7.8,15.7,15.3,43.3,33.2c28.8,18.8,37.2,14.3,46.7,27.9c15.6,22.3,6.4,53.3,4.4,60.2 c-3.3,11.2-7.1,23.9-18.5,32c-16.3,11.5-29.5,0.7-48.6,11c-16.2,8.7-12.6,19.7-28.2,33.2c-22.7,19.7-63.8,25.7-79.9,9.7 c-15.2-15.1,0.3-41.7-16.6-54.9C63,186,49.7,196.7,37.5,186z	"/>
    </path>
  </svg> -->

  <svg viewBox="0 0 200 200" xmlns="http://www.w3.org/2000/svg">
      <linearGradient id="PSgrad_0" x1="70.711%" x2="0%" y1="70.711%" y2="0%">

     <stop offset="20%" style="stop-color:#ffca9e9e;stop-opacity:1.00" />
     <stop offset="90%" style="stop-color:#ff9ea89e;stop-opacity:1.00" />
     <stop offset="100%" style="stop-color:#ff9ea89e;stop-opacity:1.00" />
    </linearGradient>
  <path fill="url(#PSgrad_0)" d="M45.9,-72C57.4,-64,63.3,-47.8,68.6,-32.4C73.8,-17.1,78.4,-2.6,75.3,9.9C72.1,22.4,61.1,32.9,50.5,42.1C40,51.3,29.8,59.2,17.9,64.2C6,69.2,-7.8,71.3,-19,67C-30.3,62.7,-39,52,-49.5,41.8C-59.9,31.6,-72.2,21.9,-73.9,10.6C-75.6,-0.7,-66.8,-13.6,-61.1,-28.7C-55.4,-43.8,-52.9,-61.1,-43.3,-69.9C-33.6,-78.7,-16.8,-79.1,0.2,-79.4C17.2,-79.7,34.4,-79.9,45.9,-72Z" transform="translate(100 100)" />
</svg>