
<!-- 
<svg xmlns="http://www.w3.org/2000/svg" width="500" height="500" 
  viewBox="-25 -25 250 250" > 
  <defs>
   <linearGradient id="lgrad" x1="0%" y1="50%" x2="100%" y2="50%" >
   <stop offset="0%" style="stop-color:#9065df;stop-opacity:1.00" />
     <stop offset="60%" style="stop-color:#ffa8c2;stop-opacity:1.00" />
     <stop offset="100%" style="stop-color:#ffca9e;stop-opacity:1.00" />
   </linearGradient>
  </defs>
  <path d="M181.70449573963427 42.34260345860138 C176.1585964679172 32.4984970339768 158.41026322920567 16.593486638362172 147.97558291693656 12.2597957388966 C128.24817740766352 4.066686303135414 80.22372573684083 -4.96095036389287 62.679552235291325 7.225088635765047 C30.75124059339942 29.402231994895754 6.896866808631691 118.36669724657116 17.073606252224664 155.88571570615275 C20.113631517144253 167.09350624302465 41.043197885924926 181.82118684014873 51.26976700272409 187.32333246063848 C62.809959309663654 193.53223965483448 89.33266216020272 202.76424293250653 102.13729881741149 199.97715715984873 C131.74614862644887 193.53242887456224 186.35871493236803 152.86357818765117 196.95841519755217 124.47581913601839 C204.26379973536112 104.91078513972539 191.95537789873723 60.538169222862294 181.70449573963427 42.34260345860138Z" stroke="none" fill="url(#lgrad)"  />
</svg> -->
<svg viewBox="0 0 440 440" xmlns="http://www.w3.org/2000/svg">
  <defs>
    <linearGradient id="gradient" x1="0%" y1="0%" x2="100%" y2="0%">
  <stop offset="0%" style="stop-color:#9065df;stop-opacity:1.00" />
     <stop offset="60%" style="stop-color:#ffa8c2;stop-opacity:1.00" />
     <stop offset="100%" style="stop-color:#ffca9e;stop-opacity:1.00" />
    </linearGradient>
  </defs><path d="M220,434.95380795826867C264.0951817215093,433.80079516516537,304.8304286304368,411.43748580561834,337.78308883129034,382.1145140046383C368.4637413377352,354.8132914994261,387.4331768583385,317.4456302445959,396.9500470681365,277.4945555417774C405.8832432050795,239.9936988174201,401.296179922966,201.62706811369716,389.52191213738035,164.91899180350097C377.7076351934433,128.08618083764605,358.5009546461598,94.76077270907656,329.9622655352752,68.64992578319682C298.52260457429287,39.884898365007786,262.6104245443627,9.33822029250215,220.00000000000006,9.818640795669388C177.5190248655236,10.297601793297844,146.53017731302532,46.60656802165964,111.82462245352914,71.10936610489411C76.52869191210772,96.02898092498903,32.86261983073663,113.92419561155457,16.126326017390664,153.75742777968395C-1.1639370591880223,194.9091350249394,7.623114362347184,242.0814813085899,22.273678485077706,284.24517632387847C36.692481266329324,325.7418721412803,62.7164983672761,361.76303609660096,97.65499817924243,388.3934485661034C133.22919427543104,415.5083939819338,175.2856102046888,436.1230119723357,220,434.95380795826867" fill="url(#gradient)" />
</svg>