<!-- <svg xmlns="http://www.w3.org/2000/svg" viewBox="0 0 1440 320">
  <defs>
    <pattern id="wave-pattern" x="0" y="0" width="1" height="1" patternUnits="objectBoundingBox">
      <image href="https://i.ibb.co/K9nx2mw/space.png" width="1440" height="320" preserveAspectRatio="xMidYMid slice" />
    </pattern>
  </defs>
  <path fill="url(#wave-pattern)" fill-opacity="1" d="M0,256L48,240C96,224,192,192,288,176C384,160,480,160,576,170.7C672,181,768,203,864,197.3C960,192,1056,160,1152,149.3C1248,139,1344,149,1392,154.7L1440,160L1440,320L1392,320C1344,320,1248,320,1152,320C1056,320,960,320,864,320C768,320,672,320,576,320C480,320,384,320,288,320C192,320,96,320,48,320L0,320Z"></path>
</svg> -->

<!-- <svg xmlns="http://www.w3.org/2000/svg" viewBox="0 0 1440 320">

  <defs>
    <pattern id="wave-pattern" x="0" y="0" width="1" height="1">
  
      <image href="https://i.ibb.co/K9nx2mw/space.png" width="100%" height="100%" />
    </pattern>
  </defs>




  <pathfill="url(#wave-pattern)"  fill-opacity="1" d="M0,256L48,240C96,224,192,192,288,176C384,160,480,160,576,170.7C672,181,768,203,864,197.3C960,192,1056,160,1152,149.3C1248,139,1344,149,1392,154.7L1440,160L1440,320L1392,320C1344,320,1248,320,1152,320C1056,320,960,320,864,320C768,320,672,320,576,320C480,320,384,320,288,320C192,320,96,320,48,320L0,320Z"></pathfill>
</svg>
 -->
<!-- <svg xmlns="http://www.w3.org/2000/svg" viewBox="0 0 1440 320">
  <path fill="transparent" fill-opacity="1" d="M0,256L48,240C96,224,192,192,288,176C384,160,480,160,576,170.7C672,181,768,203,864,197.3C960,192,1056,160,1152,149.3C1248,139,1344,149,1392,154.7L1440,160L1440,320L1392,320C1344,320,1248,320,1152,320C1056,320,960,320,864,320C768,320,672,320,576,320C480,320,384,320,288,320C192,320,96,320,48,320L0,320Z"></path>
</svg> -->
<!-- <svg xmlns="http://www.w3.org/2000/svg" viewBox="0 0 1440 320">
  <defs>
    <pattern id="wave-pattern" patternUnits="objectBoundingBox" width="1" height="1" >
      <image href="https://i.ibb.co/K9nx2mw/space.png" x="0" y="0" width="1440" height="320" preserveAspectRatio="xMidYMid slice"/>
    </pattern>
  </defs>
  <path fill="url(#wave-pattern)" d="M0,256L48,240C96,224,192,192,288,176C384,160,480,160,576,170.7C672,181,768,203,864,197.3C960,192,1056,160,1152,149.3C1248,139,1344,149,1392,154.7L1440,160L1440,320L1392,320C1344,320,1248,320,1152,320C1056,320,960,320,864,320C768,320,672,320,576,320C480,320,384,320,288,320C192,320,96,320,48,320L0,320Z"></path>
</svg> -->

<svg xmlns="http://www.w3.org/2000/svg" viewBox="0 0 1440 320">
  <defs>
    <pattern id="wave-pattern" patternUnits="objectBoundingBox" width="1" height="1">
      <image href="https://i.ibb.co/K9nx2mw/space.png" x="0" y="0" width="1440" height="320" preserveAspectRatio="xMidYMid slice"/>
    </pattern>
  </defs>
  <path fill="url(#wave-pattern)" d="M0,256L48,240C96,224,192,192,288,176C384,160,480,160,576,170.7C672,181,768,203,864,197.3C960,192,1056,160,1152,149.3C1248,139,1344,149,1392,154.7L1440,160L1440,320L1392,320C1344,320,1248,320,1152,320C1056,320,960,320,864,320C768,320,672,320,576,320C480,320,384,320,288,320C192,320,96,320,48,320L0,320Z" />
</svg>

