<svg xmlns="http://www.w3.org/2000/svg" viewBox="0 0 60 60" xml:space="preserve"><path fill="#59C5EF" d="M30.432 39.985 20.474 57.2l8.428-1.008 7.57-13.088z"/><path fill="#2BA0BF" d="m36.472 43.104-7.57 13.088L32.229 64l10.282-17.777z"/><path fill="#59C5EF" d="M39.107 49.022 47.771 64l3.327-7.808-5.679-9.819z"/><path fill="#2BA0BF" d="m51.73 43.723-6.311 2.65 5.679 9.819 8.428 1.008z"/><path fill="#FFBD66" d="m57.38 32.571-.916-.664a1.72 1.72 0 0 1-.457-2.294l.592-.964a1.72 1.72 0 0 0-1.067-2.574l-1.1-.263a1.723 1.723 0 0 1-1.3-1.945l.178-1.116a1.71 1.71 0 0 0-.482-1.488 1.711 1.711 0 0 0-1.488-.483l-1.117.178a1.721 1.721 0 0 1-1.945-1.3l-.262-1.1a1.72 1.72 0 0 0-2.575-1.067l-.963.593a1.72 1.72 0 0 1-2.294-.456l-.664-.916a1.721 1.721 0 0 0-2.787 0l-.664.916a1.72 1.72 0 0 1-2.294.456l-.964-.592a1.72 1.72 0 0 0-2.574 1.066l-.263 1.1a1.722 1.722 0 0 1-1.945 1.3l-1.117-.178a1.72 1.72 0 0 0-1.986 1.546l-.003.035c-.008.126-.003.257.018.388l.179 1.117a1.72 1.72 0 0 1-1.3 1.945l-1.1.263a1.72 1.72 0 0 0-1.066 2.574l.592.964a1.721 1.721 0 0 1-.457 2.295l-.916.663a1.72 1.72 0 0 0 0 2.786l.916.664a1.72 1.72 0 0 1 .457 2.294l-.592.964a1.72 1.72 0 0 0 1.066 2.574l1.1.264a1.721 1.721 0 0 1 1.3 1.944l-.179 1.116a1.711 1.711 0 0 0 .483 1.488v.002c.371.371.91.574 1.488.482l1.117-.179a1.72 1.72 0 0 1 1.945 1.3l.262 1.1a1.72 1.72 0 0 0 2.575 1.066l.964-.592a1.721 1.721 0 0 1 2.294.457l.664.915c.687.948 2.1.948 2.787 0l.664-.915a1.721 1.721 0 0 1 2.294-.457l.964.592a1.72 1.72 0 0 0 2.574-1.066l.263-1.1a1.722 1.722 0 0 1 1.945-1.3l1.117.179c.132.021.262.026.388.018l.035-.002a1.722 1.722 0 0 0 1.546-1.986l-.178-1.117a1.72 1.72 0 0 1 1.3-1.945l1.1-.263a1.72 1.72 0 0 0 1.067-2.574l-.592-.964a1.72 1.72 0 0 1 .457-2.294l.916-.664a1.72 1.72 0 0 0 0-2.786z"/><path fill="#FDDC85" d="M51.604 33.845c0-6.339-5.138-11.478-11.477-11.478-6.338 0-11.477 5.139-11.477 11.478 0 6.339 5.138 11.476 11.477 11.476s11.477-5.137 11.477-11.476z"/><path fill="#FFBD66" d="m40.128 25.373 2.467 4.998 5.517.802-3.993 3.892.943 5.494-4.934-2.594-4.934 2.594.942-5.494-3.992-3.892 5.516-.802z"/></svg>
