<?xml version="1.0" ?><!DOCTYPE svg  PUBLIC '-//W3C//DTD SVG 1.1//EN'  'http://www.w3.org/Graphics/SVG/1.1/DTD/svg11.dtd'><svg enable-background="new 0 0 65 65" id="Layer_1" version="1.1" viewBox="0 0 65 65" xml:space="preserve" xmlns="http://www.w3.org/2000/svg" xmlns:xlink="http://www.w3.org/1999/xlink"><g><polygon points="50.1,28 50.1,26.5 47.3,26.5 50,23.7 49,22.6 46.2,25.4 46.2,22.6 44.7,22.6 44.7,28  "/><rect height="1.5" transform="matrix(0.7078 0.7064 -0.7064 0.7078 30.264 -29.5997)" width="1.5" x="50.2" y="21"/><rect height="1.5" transform="matrix(-0.7078 -0.7064 0.7064 -0.7078 76.6741 71.0326)" width="1.5" x="52.3" y="18.9"/><polygon points="18.8,25.4 16,22.6 15,23.7 17.7,26.5 14.9,26.5 14.9,28 20.3,28 20.3,22.6 18.8,22.6  "/><rect height="1.5" transform="matrix(-0.7077 0.7065 -0.7065 -0.7077 39.4518 27.2407)" width="1.5" x="13.3" y="21"/><rect height="1.5" transform="matrix(0.7064 0.7078 -0.7078 0.7064 17.4285 -2.7019)" width="1.5" x="11.2" y="18.9"/><polygon points="50,50.3 47.3,47.5 50.1,47.5 50.1,46 44.7,46 44.7,51.4 46.2,51.4 46.2,48.6 49,51.4  "/><rect height="1.5" transform="matrix(0.7078 -0.7064 0.7064 0.7078 -22.0126 51.2253)" width="1.5" x="50.2" y="51.5"/><rect height="1.5" transform="matrix(-0.7068 -0.7074 0.7074 -0.7068 52.0686 130.265)" width="1.5" x="52.3" y="53.6"/><polygon points="14.9,46 14.9,47.5 17.7,47.5 15,50.3 16,51.4 18.8,48.6 18.8,51.4 20.3,51.4 20.3,46  "/><rect height="1.5" transform="matrix(-0.7078 -0.7064 0.7064 -0.7078 -12.825 99.1332)" width="1.5" x="13.3" y="51.5"/><rect height="1.5" transform="matrix(-0.7077 -0.7065 0.7065 -0.7077 -17.9477 101.2598)" width="1.5" x="11.2" y="53.6"/><rect height="1.5" width="1.5" x="55" y="7.8"/><rect height="1.5" width="1.5" x="58.8" y="7.8"/><rect height="1.5" width="1.5" x="51.2" y="7.8"/><rect height="1.5" width="40.3" x="6.4" y="7.8"/><path d="M28.9,24.5c-0.3,0.6-0.4,1.3-0.4,2c0,0.3,0,0.7,0.1,1l0.2,1l0.9-0.5c1.8-1,3.8-1,5.6,0l0.9,0.5l0.2-1   c0.1-0.3,0.1-0.7,0.1-1c0-0.7-0.2-1.4-0.4-2c0.2-0.1,0.4-0.1,0.7,0.1l0.7-1.3c-0.9-0.5-1.7-0.4-2.2-0.1c-0.7-0.8-1.7-1.3-2.8-1.3   c-1.1,0-2.1,0.5-2.8,1.3c-0.6-0.3-1.3-0.4-2.2,0.1l0.7,1.3C28.5,24.5,28.7,24.4,28.9,24.5z M32.5,23.4c1.3,0,2.4,1.3,2.5,2.9   c-0.8-0.3-1.7-0.5-2.5-0.5c-0.9,0-1.7,0.2-2.5,0.5C30.1,24.7,31.2,23.4,32.5,23.4z"/><path d="M40.5,39.1c0.3,0.1,0.5,0.4,0.7,1l1.4-0.5c-0.3-1-0.9-1.6-1.6-1.9c-0.5-0.2-0.9-0.2-1.3-0.1c0-0.1,0-0.3,0-0.4   c0-0.9-0.1-1.8-0.3-2.7c0.3-0.1,0.7-0.1,1.1,0c0.3,0.1,0.5,0.3,0.6,0.7l1.4-0.6c-0.3-0.8-0.8-1.3-1.5-1.6c-0.8-0.3-1.5-0.2-2.1,0   c-0.3-0.7-0.7-1.3-1.1-1.9c0.3-0.4,1.1-0.8,2.6-0.3l0.5-1.4c-2.2-0.7-3.5-0.1-4.1,0.6c-1.2-1.1-2.7-1.8-4.3-1.8   c-1.6,0-3.1,0.7-4.3,1.8c-0.7-0.7-1.9-1.3-4.1-0.6l0.5,1.4c1.5-0.5,2.3-0.1,2.6,0.3c-0.4,0.6-0.8,1.2-1.1,1.9   c-0.6-0.2-1.3-0.3-2.1,0c-0.7,0.3-1.2,0.8-1.5,1.6l1.4,0.6c0.1-0.4,0.4-0.6,0.6-0.7c0.3-0.1,0.7-0.1,1.1,0   c-0.2,0.9-0.3,1.8-0.3,2.7c0,0.1,0,0.3,0,0.4c-0.4-0.1-0.8-0.1-1.3,0.1c-0.7,0.3-1.3,0.9-1.6,1.9l1.4,0.5c0.2-0.5,0.4-0.9,0.7-1   c0.3-0.1,0.6,0,0.9,0.1c0.1,0.7,0.3,1.3,0.5,1.9c-0.2,0-0.5,0.1-0.8,0.2c-0.9,0.5-1.6,1.4-2,2.8l1.4,0.4c0.3-0.9,0.7-1.6,1.2-1.8   c0.3-0.2,0.7-0.2,0.9-0.1c1.3,2.2,3.4,3.6,5.8,3.6c2.4,0,4.5-1.4,5.8-3.6c0.2,0,0.5-0.1,0.9,0.1c0.5,0.3,0.9,0.9,1.2,1.8l1.4-0.4   c-0.4-1.4-1.1-2.3-2-2.8c-0.3-0.1-0.5-0.2-0.8-0.2c0.2-0.6,0.4-1.2,0.5-1.9C39.8,39.1,40.2,38.9,40.5,39.1z M32.5,44.6   c-3.2,0-5.8-3.3-5.8-7.4s2.6-7.4,5.8-7.4c3.2,0,5.8,3.3,5.8,7.4S35.7,44.6,32.5,44.6z"/><path d="M61.5,3.7h-58c-2.1,0-3.8,1.7-3.8,3.8v50.2c0,2.1,1.7,3.8,3.8,3.8h58c2.1,0,3.8-1.7,3.8-3.8V7.4   C65.3,5.3,63.6,3.7,61.5,3.7z M3.5,5.2h58c1.2,0,2.3,1,2.3,2.3v4.2H1.3V7.4C1.3,6.2,2.3,5.2,3.5,5.2z M61.5,59.8h-58   c-1.2,0-2.3-1-2.3-2.3V13.1h62.5v44.4C63.8,58.8,62.7,59.8,61.5,59.8z"/></g></svg>