<!--?xml version="1.0" encoding="utf-8"?-->
<!-- Svg Vector Icons : http://www.onlinewebfonts.com/icon -->

<svg version="1.1" xmlns="http://www.w3.org/2000/svg" xmlns:xlink="http://www.w3.org/1999/xlink" x="0px" y="0px" viewBox="0 0 256 256" enable-background="new 0 0 256 256" xml:space="preserve">
<metadata> Svg Vector Icons : http://www.onlinewebfonts.com/icon </metadata>
<g><g><g><path fill="#dedada" data-title="Layer 0" xs="0" d="M225.3,187.8c-0.9-16.7-14.3-30.1-30.9-30.9v-12.4h-3.6v12.4c-16.7,0.9-30,14.3-30.9,30.9h-12.3v3.6h12.3c0.9,16.7,14.3,30.1,30.9,31v12.4h3.6v-12.4c16.7-0.9,30.1-14.3,30.9-31h15v-3.6H225.3z M190.7,218.7c-14.7-0.9-26.5-12.7-27.4-27.4h27.4V218.7L190.7,218.7z M190.7,187.8h-27.4c0.9-14.7,12.7-26.5,27.4-27.4V187.8L190.7,187.8z M194.3,218.7v-27.4h27.4C220.8,206.1,209,217.8,194.3,218.7z M194.3,187.8v-27.4c14.7,0.9,26.5,12.7,27.4,27.4H194.3z M176.6,61.5c-0.4-2.7,1.4-5.2,4.1-5.6c1.2-0.2,28.9-5,30.6-28.9c0.2-2.7,2.5-4.7,5.2-4.6c2.7,0.2,4.7,2.6,4.6,5.2c-2.2,31.7-38.5,37.9-38.9,37.9c-0.2,0-0.5,0-0.8,0C179,65.6,177,63.9,176.6,61.5z M28.5,27.6c-0.2-2.7,1.9-5.1,4.6-5.2c2.8-0.2,5.1,1.9,5.2,4.6C40,50.8,67.7,55.6,68.9,55.8c2.7,0.4,4.5,3,4.1,5.6c-0.4,2.4-2.4,4.1-4.8,4.1c-0.3,0-0.5,0-0.8-0.1C67,65.5,30.8,59.4,28.5,27.6z M199,102.9c1.4,0,34.8,1.8,41.5,28.6c0.3,1.3,0.1,2.6-0.6,3.7c-0.7,1.1-1.8,1.9-3,2.2c-0.4,0.1-0.8,0.1-1.2,0.1c-2.3,0-4.2-1.5-4.8-3.7c-4.9-19.6-32.2-21.2-32.4-21.2c-1.3,0-2.5-0.6-3.4-1.6c-0.9-1-1.3-2.2-1.3-3.5c0.1-2.6,2.3-4.7,4.9-4.7H199z M52.1,112.7c-0.3,0-27.5,1.6-32.5,21.2c-0.6,2.2-2.5,3.7-4.8,3.7c-0.4,0-0.8,0-1.2-0.1c-1.3-0.3-2.3-1.1-3-2.2c-0.7-1.1-0.9-2.4-0.6-3.7c6.7-26.8,40.1-28.5,41.6-28.6h0.2c2.6,0,4.8,2.1,4.9,4.7C57,110.3,54.9,112.6,52.1,112.7z M102,38.1c-0.1-1-0.2-2-0.2-2.9c0-12.7,10.4-23.1,23.1-23.1s23.1,10.4,23.1,23.1c0,1-0.1,2-0.2,2.9c13.9,6.1,25.9,17.8,33.9,33l0.9,1.8l-1.8,0.9c-15.1,7.8-31.9,11.8-50,11.8l0,0c-26.8,0-49.6-8.6-60.9-13.7l-2-0.9l1-1.9C77.2,54.9,88.8,43.9,102,38.1z M76.3,180.5c0.6,2.6-0.9,5.3-3.6,5.9c-0.2,0.1-26.3,7.1-29.7,30.3c-0.4,2.4-2.4,4.2-4.9,4.2c-0.2,0-0.5,0-0.7,0c-2.7-0.4-4.6-2.9-4.1-5.6c4.4-29.9,35.7-38.1,37.1-38.4c0.4-0.1,0.8-0.1,1.2-0.1C73.8,176.8,75.8,178.3,76.3,180.5z M192.5,137c-0.8,0-1.6,0.1-2.4,0.1c1.5-6.8,2.4-14,2.4-21.4c0-13.1-2.5-25.7-7.3-37.3l-0.8-2l-1.9,1C170,83.9,149.7,87.7,135,89l-1.4,0.1l-0.3,1.3c-4,15.5-6.4,34.5-7.8,52.1c-2.2-28-5.4-51.8-5.5-52.2l-0.2-1.7C94,86,72.1,77.1,68.2,75.3l-1.8-0.8l-0.8,1.8c-5.4,12-8.2,25.6-8.2,39.4c0,45.5,30.3,82.5,67.5,82.5c5,0,9.8-0.7,14.4-2c2.9,26.8,25.6,47.7,53.1,47.7c29.5,0,53.5-24,53.5-53.5C246,161,222,137,192.5,137z M192.5,240.4c-27.5,0-49.9-22.4-49.9-49.9c0-27.5,22.4-49.9,49.9-49.9s49.9,22.4,49.9,49.9C242.4,218,220,240.4,192.5,240.4z"/></g><g></g><g></g><g></g><g></g><g></g><g></g><g></g><g></g><g></g><g></g><g></g><g></g><g></g><g></g><g></g></g></g>
</svg>