<svg xmlns="http://www.w3.org/2000/svg" enable-background="new 0 0 512 512" viewBox="0 0 512 512" id="diagnosis"><path fill="#f1f4f5" d="M346.034,452.536H165.92c47.324-22.82,47.704-67.319,53.681-90.139h72.806C298.384,385.217,298.71,429.716,346.034,452.536z" class="colorf2f0f0 svgShape"></path><path fill="#6d6d6d" d="M366.753 457.209c0 5.351-4.268 9.682-9.619 9.682H154.82c-5.287 0-9.619-4.332-9.619-9.682 0-5.287 4.332-9.619 9.619-9.619h202.314C362.485 447.59 366.753 451.921 366.753 457.209zM511.365 67.331c0 2.065 0-3.641-.054 273.132H.635C.689 89.988.689 68.092.689 68.092v-.76c0-12.334 9.943-22.222 22.222-22.222h466.231C501.476 45.109 511.365 54.998 511.365 67.331z" class="color6d6d6d svgShape"></path><path fill="#66cff2" d="M22.374,318.731c0.048-230.026,0.048-251.399,0.048-251.399c0-0.361,0.255-0.491,0.491-0.491h466.232c0.329,0,0.488,0.162,0.488,0.491l-0.048,251.399H22.374z" class="color66d5f2 svgShape"></path><path fill="#5b5b5b" d="M511.319,340.442l0,38.553c0,13.335-10.756,24.146-24.092,24.146c-89.375,0-321.916,0-462.494-0.068c-13.331-0.006-24.099-10.815-24.099-24.146v-38.485H511.319z" class="color5b5b5b svgShape"></path><path fill="#ffffff" d="M34.476,359.658v14.566c0,4.315-3.498,7.813-7.813,7.813h0c-4.315,0-7.813-3.498-7.813-7.813v-14.566c0-4.315,3.498-7.813,7.813-7.813h0C30.978,351.845,34.476,355.343,34.476,359.658z" opacity=".4" class="colorffffff svgShape"></path><path fill="#e3e4e5" d="M425.504 371.791c0 4.594-3.728 8.279-8.279 8.279-4.594 0-8.278-3.684-8.278-8.279 0-4.551 3.684-8.278 8.278-8.278C421.776 363.513 425.504 367.24 425.504 371.791zM450.7 371.791c0 4.594-3.728 8.279-8.279 8.279-4.594 0-8.278-3.684-8.278-8.279 0-4.551 3.684-8.278 8.278-8.278C446.973 363.513 450.7 367.24 450.7 371.791zM475.897 371.791c0 4.594-3.728 8.279-8.279 8.279-4.594 0-8.278-3.684-8.278-8.279 0-4.551 3.684-8.278 8.278-8.278C472.169 363.513 475.897 367.24 475.897 371.791z" class="colore5e3e5 svgShape"></path><path d="M511.365,67.312c0,2.192,0-4.172-0.071,311.684c0,13.364-10.747,24.112-24.041,24.112h-20.435c13.364,0,24.112-10.748,24.112-24.112c0.07-315.856,0.07-309.492,0.07-311.684c0-12.304-9.899-22.203-22.202-22.203h20.364C501.466,45.11,511.365,55.009,511.365,67.312z" opacity=".08" fill="#000000" class="color000000 svgShape"></path><path fill="#f1f4f5" d="M350.791,185.401v14.77c0,4.036-2.972,7.363-6.964,7.807l-15.214,1.774c-1.818,7.895-4.968,15.524-9.27,22.355l9.581,12.02c2.484,3.193,2.173,7.673-0.621,10.468l-10.512,10.512c-2.794,2.794-7.274,3.105-10.468,0.577l-12.02-9.581c-6.831,4.347-14.46,7.451-22.355,9.271l-1.73,15.214c-0.488,4.036-3.815,7.008-7.851,7.008H248.64c-4.036,0-7.407-2.972-7.851-7.008l-1.73-15.214c-7.895-1.819-15.524-4.924-22.355-9.271l-12.02,9.581c-3.193,2.528-7.673,2.218-10.468-0.577l-10.512-10.512c-2.794-2.794-3.105-7.274-0.621-10.468l9.581-12.02c-4.303-6.831-7.452-14.46-9.27-22.355l-15.214-1.774c-3.992-0.443-6.964-3.77-6.964-7.807v-14.77c0-3.992,2.972-7.363,6.964-7.807l15.214-1.774c1.819-7.895,4.968-15.48,9.27-22.311l-9.581-12.02c-2.484-3.194-2.173-7.674,0.621-10.512l10.512-10.468c2.794-2.838,7.274-3.149,10.468-0.62l12.02,9.58c6.831-4.347,14.46-7.451,22.355-9.27l1.73-15.214c0.444-4.036,3.815-7.008,7.851-7.008h14.726c4.036,0,7.363,2.972,7.851,7.008l1.73,15.214c7.895,1.819,15.524,4.923,22.355,9.27l12.02-9.58c3.194-2.529,7.673-2.218,10.468,0.62l10.512,10.468c2.794,2.838,3.105,7.318,0.621,10.512l-9.581,12.02c4.302,6.831,7.452,14.416,9.27,22.311l15.214,1.774C347.819,178.038,350.791,181.409,350.791,185.401z" class="colorf2f0f0 svgShape"></path><path fill="#e3e4e5" d="M299.898,236.627c-24.249,24.25-63.553,24.25-87.802,0c-24.308-24.132-24.308-63.553,0-87.626c24.25-24.308,63.553-24.308,87.802,0C324.03,173.074,324.03,212.495,299.898,236.627z" class="colore5e3e5 svgShape"></path><path fill="#64d4f9" d="M286.31,213.86c-0.093,0-0.187-0.004-0.28-0.013c-1.301-0.12-2.38-1.058-2.68-2.329l-6.896-29.312l-6.27,9.263c-0.565,0.835-1.507,1.335-2.516,1.335h-18.318l-8.481,19.244c-0.527,1.194-1.785,1.926-3.059,1.8c-1.301-0.12-2.38-1.058-2.68-2.329l-6.896-29.312l-6.27,9.263c-0.565,0.835-1.507,1.335-2.516,1.335h-14.048c-1.678,0-3.039-1.361-3.039-3.039s1.361-3.039,3.039-3.039h12.435l9.254-13.668c0.675-1,1.881-1.503,3.067-1.285c1.186,0.218,2.131,1.117,2.408,2.292l6.405,27.225l5.619-12.751c0.485-1.102,1.576-1.813,2.78-1.813h18.687l9.254-13.668c0.677-1,1.878-1.503,3.067-1.285c1.185,0.218,2.131,1.117,2.408,2.292l6.405,27.226l5.62-12.753c0.485-1.102,1.576-1.813,2.78-1.813h10.873c1.678,0,3.039,1.361,3.039,3.039s-1.361,3.039-3.039,3.039h-8.892l-8.481,19.244C288.601,213.157,287.504,213.86,286.31,213.86z" class="colorf96464 svgShape"></path></svg>