<svg xmlns="http://www.w3.org/2000/svg" xmlns:xlink="http://www.w3.org/1999/xlink" viewBox="0 0 32 32" id="Lateral"><defs><linearGradient id="a"><stop offset="0" stop-color="#ffff" class="stopColor000092 svgShape"></stop><stop offset="1" stop-color="#ffffff" class="stopColorff00f3 svgShape"></stop></linearGradient><linearGradient id="b" x1="3.999" x2="26" y1="16.003" y2="16.003" gradientUnits="userSpaceOnUse" xlink:href="#a"></linearGradient></defs><path style="line-height:normal;text-indent:0;text-align:start;text-decoration-line:none;text-decoration-style:solid;text-decoration-color:#000;text-transform:none;block-progression:tb;isolation:auto;mix-blend-mode:normal" fill="url(#b)" d="M15.908 1a1.47 1.47 0 0 0-1.463 1.46c0 .802.662 1.46 1.463 1.46s1.463-.658 1.463-1.46A1.47 1.47 0 0 0 15.908 1zm0 1c.263 0 .463.202.463.46 0 .26-.2.46-.463.46a.453.453 0 0 1-.463-.46c0-.258.2-.46.463-.46zm9.387.44a1.71 1.71 0 0 0-1.703 1.7c0 .265.066.511.176.735l-2.282 1.518A2.173 2.173 0 0 0 20 5.799c-.272 0-.53.056-.771.148l-.368-.511-.812.582.351.49a2.163 2.163 0 0 0-.564 1.271l-2.711.36a1.208 1.208 0 0 0-.902-.42A1.23 1.23 0 0 0 13 8.939c0 .67.554 1.221 1.223 1.221.61 0 1.12-.463 1.205-1.053l2.54-.337c.157.396.426.733.768.978l-.824 1.37a1.442 1.442 0 0 0-.32-.038c-.801 0-1.463.658-1.463 1.46 0 .8.662 1.46 1.463 1.46a1.47 1.47 0 0 0 1.463-1.46c0-.33-.116-.633-.303-.878l.924-1.535c.107.016.213.033.324.033.565 0 1.077-.223 1.467-.578h.002l.004-.004c.199-.183.361-.402.482-.646l.113-.15-.033-.026c.094-.242.15-.502.15-.776 0-.266-.055-.52-.144-.757l2.424-1.612c.247.14.528.229.83.229A1.71 1.71 0 0 0 27 4.14c0-.933-.771-1.7-1.705-1.7zm-6.082.304v.004a.5.5 0 0 0-.05.996c1.104.168 2.13.52 3.052 1.024a.5.5 0 1 0 .478-.88 10.272 10.272 0 0 0-3.38-1.132.5.5 0 0 0-.1-.012zm6.082.695c.395 0 .705.31.705.702 0 .391-.31.699-.705.699a.693.693 0 0 1-.703-.7c0-.391.308-.7.703-.7zm-12.022.288a.5.5 0 0 0-.226.058 10.175 10.175 0 0 0-5.346 7.4l-3.648 7.249a.5.5 0 0 0 .447.724h1.434v5.043a.5.5 0 0 0 .5.5h3.982l.637 5.565a.5.5 0 1 0 .992-.114l-.686-6.007a.5.5 0 0 0-.496-.444h-3.93v-5.043a.5.5 0 0 0-.5-.5h-1.12l3.296-6.554a.5.5 0 0 0 .047-.149 9.17 9.17 0 0 1 4.852-6.783.5.5 0 0 0-.235-.945zm4.422.084-.812.582.582.812.814-.582-.584-.812zM25.6 6.598V6.6a.5.5 0 0 0-.375.8 9.138 9.138 0 0 1 1.709 6.53c-.008.066-.023.166-.032.226l-4.406 9.621a.5.5 0 0 0-.043.252l.563 6.508a.5.5 0 1 0 .996-.086l-.551-6.379 4.38-9.57a.5.5 0 0 0 .042-.137s.029-.199.043-.316a10.151 10.151 0 0 0-1.895-7.242.5.5 0 0 0-.431-.21zm-5.6.2c.661 0 1.186.526 1.186 1.182 0 .657-.525 1.18-1.186 1.18a1.175 1.175 0 0 1-1.186-1.18c0-.656.525-1.181 1.186-1.181zm-5.777 1.92c.13 0 .222.095.222.221 0 .127-.093.221-.222.221A.215.215 0 0 1 14 8.94c0-.127.093-.221.223-.221zm8.646.663-.6.8.422.315a1.197 1.197 0 0 0-.062.363c0 .669.554 1.221 1.223 1.221a1.23 1.23 0 0 0 1.222-1.22 1.23 1.23 0 0 0-1.222-1.221c-.176 0-.34.04-.493.109l-.49-.367zm.983 1.258c.129 0 .222.094.222.22 0 .127-.093.221-.222.221a.215.215 0 0 1-.223-.22c0-.127.093-.221.223-.221zm-6.26 1.441c.262 0 .463.2.463.46 0 .258-.2.46-.463.46a.455.455 0 0 1-.463-.46c0-.26.2-.46.463-.46z" color="#000" font-family="sans-serif" font-weight="400" overflow="visible"></path></svg>