<?xml version="1.0" ?><!DOCTYPE svg  PUBLIC '-//W3C//DTD SVG 1.1//EN'  'http://www.w3.org/Graphics/SVG/1.1/DTD/svg11.dtd'><svg enable-background="new 0 0 48 48" height="28px" id="_x3C_Layer_x3E_" version="1.1" viewBox="0 0 48 48" width="28px" xml:space="preserve" xmlns="http://www.w3.org/2000/svg" xmlns:xlink="http://www.w3.org/1999/xlink"><g id="work_x2C__head_x2C__gear"><g><path d="M19,46.009c-0.24,0-0.452-0.173-0.493-0.418L17.577,40h-5.583C10.343,40,9,38.666,9,37.016v-6.507H6.491    c-0.501,0-0.967-0.249-1.246-0.665c-0.279-0.416-0.332-0.941-0.142-1.405l3.377-8.478L8.01,17.599    C8,13.693,9.597,10.025,12.498,7.171c3.42-3.366,8.216-5.25,13.242-5.169c8.831,0.143,15.97,7.421,16.252,16.57    c0.192,6.231-2.741,10.54-4.882,13.686c-0.243,0.356-0.475,0.698-0.692,1.026c-1.061,1.606-0.001,8.427,0.508,11.705l0.069,0.444    c0.042,0.272-0.145,0.528-0.418,0.57c-0.273,0.045-0.528-0.145-0.57-0.418l-0.069-0.442c-0.788-5.071-1.529-10.63-0.354-12.409    c0.219-0.332,0.454-0.678,0.699-1.038c2.064-3.032,4.891-7.186,4.709-13.092C40.726,9.989,34.019,3.136,25.723,3.002    c-4.728-0.078-9.293,1.703-12.524,4.882C10.491,10.548,9,13.964,9,17.501l0.49,2.41c0.019,0.095,0.01,0.193-0.026,0.283    L6.03,28.814c-0.066,0.162-0.049,0.332,0.045,0.473c0.094,0.141,0.246,0.222,0.416,0.222H9c0.551,0,1,0.449,1,1v6.507    c0,1.099,0.894,1.993,1.993,1.993h5.583c0.49,0,0.905,0.351,0.987,0.835l0.93,5.583c0.045,0.272-0.139,0.53-0.411,0.575    C19.054,46.007,19.027,46.009,19,46.009z" fill="   #b450ee"/></g><g><path d="M21.871,25h-1.742c-0.443,0-0.818-0.317-0.893-0.754l-0.114-0.69c-0.751-0.186-1.469-0.483-2.135-0.885    l-0.569,0.406c-0.359,0.258-0.849,0.218-1.165-0.095l-1.233-1.234c-0.313-0.316-0.354-0.806-0.096-1.166l0.406-0.569    c-0.401-0.666-0.699-1.383-0.885-2.135l-0.688-0.114C12.317,17.689,12,17.314,12,16.871v-1.743c0-0.443,0.317-0.818,0.754-0.893    l0.69-0.114c0.186-0.751,0.483-1.469,0.885-2.135l-0.406-0.569c-0.257-0.36-0.217-0.85,0.095-1.165l1.234-1.233    c0.316-0.315,0.807-0.354,1.167-0.096l0.568,0.406c0.666-0.401,1.383-0.699,2.135-0.885l0.114-0.688    C19.311,7.317,19.686,7,20.129,7h1.742c0.443,0,0.818,0.317,0.893,0.754l0.114,0.69c0.751,0.186,1.469,0.483,2.135,0.885    l0.569-0.406c0.359-0.258,0.849-0.217,1.165,0.095l1.233,1.234c0.313,0.316,0.354,0.806,0.096,1.166l-0.406,0.569    c0.401,0.666,0.699,1.383,0.885,2.135l0.688,0.114c0,0,0.001,0,0.002,0C29.683,14.311,30,14.686,30,15.128v1.743    c0,0.443-0.317,0.818-0.754,0.893l-0.69,0.114c-0.186,0.751-0.483,1.469-0.885,2.135l0.406,0.569    c0.257,0.36,0.217,0.85-0.095,1.165l-1.234,1.233c-0.317,0.313-0.807,0.353-1.166,0.096l-0.569-0.406    c-0.666,0.401-1.383,0.699-2.135,0.885l-0.114,0.688C22.689,24.683,22.314,25,21.871,25z M20.209,24h1.582l0.112-0.676    c0.06-0.355,0.327-0.64,0.682-0.726c0.691-0.166,1.35-0.439,1.958-0.812c0.313-0.192,0.704-0.179,0.997,0.031l0.558,0.399    l1.118-1.118l-0.399-0.56c-0.21-0.292-0.223-0.684-0.031-0.996c0.373-0.608,0.646-1.266,0.812-1.957    c0.086-0.356,0.371-0.624,0.726-0.683L29,16.791v-1.582l-0.676-0.112c-0.355-0.06-0.64-0.327-0.726-0.682    c-0.166-0.691-0.439-1.35-0.812-1.958c-0.192-0.312-0.18-0.703,0.031-0.997l0.399-0.558l-1.118-1.118l-0.56,0.399    c-0.291,0.21-0.684,0.223-0.996,0.031c-0.608-0.373-1.266-0.646-1.957-0.812c-0.356-0.086-0.624-0.371-0.683-0.726L21.791,8    h-1.582l-0.112,0.676c-0.06,0.355-0.327,0.64-0.682,0.726c-0.691,0.166-1.35,0.439-1.958,0.812    c-0.313,0.193-0.703,0.18-0.997-0.031l-0.558-0.399l-1.118,1.118l0.399,0.56c0.21,0.292,0.223,0.684,0.031,0.996    c-0.373,0.608-0.646,1.266-0.812,1.957c-0.086,0.356-0.371,0.624-0.726,0.683L13,15.209v1.582l0.676,0.112    c0.355,0.06,0.64,0.327,0.726,0.682c0.166,0.691,0.439,1.35,0.812,1.958c0.192,0.312,0.18,0.703-0.031,0.997l-0.399,0.558    l1.118,1.118l0.56-0.399c0.291-0.21,0.684-0.223,0.996-0.031c0.608,0.373,1.266,0.646,1.957,0.812    c0.356,0.086,0.624,0.371,0.683,0.726L20.209,24z" fill="   #b450ee"/></g><g><path d="M21,21c-2.757,0-5-2.243-5-5s2.243-5,5-5s5,2.243,5,5S23.757,21,21,21z M21,12c-2.206,0-4,1.794-4,4    s1.794,4,4,4s4-1.794,4-4S23.206,12,21,12z" fill="   #b450ee"/></g><g><path d="M35.24,26.87c-0.163,0-0.319-0.08-0.415-0.22l-0.45-0.667c-0.383,0.033-0.766,0.017-1.142-0.048    l-0.506,0.624c-0.145,0.178-0.393,0.234-0.6,0.138l-0.906-0.422c-0.208-0.097-0.323-0.323-0.279-0.548l0.153-0.788    c-0.292-0.247-0.549-0.529-0.771-0.844l-0.801,0.083c-0.225,0.026-0.443-0.11-0.521-0.326l-0.342-0.939    c-0.079-0.216,0-0.458,0.19-0.586l0.667-0.45c-0.033-0.384-0.017-0.766,0.048-1.142l-0.624-0.506    c-0.178-0.145-0.235-0.392-0.138-0.6l0.422-0.906c0.096-0.208,0.321-0.324,0.548-0.279l0.788,0.153    c0.247-0.292,0.529-0.549,0.844-0.771l-0.083-0.801c-0.024-0.228,0.11-0.443,0.326-0.521l0.939-0.342    c0.216-0.078,0.457,0,0.586,0.19l0.45,0.667c0.382-0.034,0.765-0.017,1.142,0.048l0.506-0.624c0.144-0.178,0.391-0.235,0.6-0.138    l0.906,0.423c0.208,0.097,0.323,0.323,0.279,0.548l-0.153,0.788c0.292,0.247,0.549,0.529,0.771,0.844l0.801-0.083    c0.229-0.022,0.443,0.111,0.521,0.326l0.342,0.939c0.079,0.216,0,0.458-0.19,0.586l-0.667,0.45    c0.033,0.384,0.017,0.766-0.048,1.142l0.624,0.505c0.178,0.145,0.235,0.392,0.138,0.6l-0.422,0.907    c-0.097,0.208-0.323,0.324-0.548,0.28l-0.788-0.153c-0.247,0.292-0.529,0.549-0.844,0.771l0.083,0.801    c0.024,0.228-0.11,0.443-0.326,0.521l-0.939,0.342C35.355,26.86,35.297,26.87,35.24,26.87z M34.619,24.949    c0.165,0,0.32,0.081,0.415,0.22l0.403,0.597l0.206-0.075l-0.075-0.716c-0.021-0.193,0.073-0.38,0.239-0.48    c0.405-0.243,0.749-0.557,1.022-0.933c0.114-0.157,0.31-0.234,0.5-0.197l0.704,0.136l0.092-0.199l-0.557-0.451    c-0.151-0.123-0.217-0.321-0.17-0.509c0.112-0.451,0.132-0.916,0.058-1.383c-0.03-0.191,0.054-0.383,0.214-0.492l0.597-0.403    l-0.075-0.206l-0.716,0.075c-0.192,0.023-0.38-0.073-0.48-0.239c-0.243-0.405-0.557-0.749-0.933-1.022    c-0.157-0.114-0.234-0.309-0.197-0.5l0.136-0.704l-0.198-0.093l-0.452,0.558c-0.122,0.151-0.32,0.216-0.509,0.17    c-0.452-0.112-0.917-0.132-1.383-0.058c-0.188,0.031-0.383-0.053-0.492-0.214l-0.403-0.597l-0.206,0.075l0.075,0.716    c0.021,0.193-0.073,0.38-0.239,0.48c-0.405,0.243-0.749,0.557-1.022,0.933c-0.114,0.157-0.31,0.236-0.5,0.197l-0.704-0.136    l-0.092,0.198l0.557,0.452c0.151,0.122,0.217,0.32,0.17,0.509c-0.112,0.451-0.132,0.916-0.058,1.383    c0.03,0.191-0.054,0.383-0.214,0.492l-0.597,0.403l0.075,0.206l0.716-0.075c0.195-0.021,0.38,0.073,0.48,0.239    c0.243,0.405,0.557,0.749,0.933,1.022c0.157,0.114,0.234,0.309,0.197,0.5l-0.136,0.704l0.198,0.092l0.452-0.557    c0.123-0.15,0.321-0.216,0.509-0.17c0.451,0.111,0.916,0.132,1.383,0.058C34.567,24.951,34.593,24.949,34.619,24.949z     M33.999,24.001c-0.36,0-0.719-0.079-1.055-0.235c-0.605-0.282-1.064-0.783-1.292-1.411c-0.229-0.627-0.199-1.306,0.083-1.912    c0.282-0.605,0.783-1.064,1.411-1.292c0.627-0.229,1.307-0.2,1.912,0.083c0.605,0.282,1.064,0.783,1.292,1.411    c0.229,0.627,0.199,1.306-0.083,1.912c-0.282,0.605-0.783,1.064-1.411,1.292C34.576,23.951,34.287,24.001,33.999,24.001z     M34.001,19.999c-0.173,0-0.347,0.03-0.514,0.091c-0.376,0.137-0.677,0.413-0.846,0.776c-0.169,0.363-0.188,0.771-0.05,1.147    s0.413,0.677,0.776,0.846c0.364,0.17,0.771,0.188,1.147,0.05c0.376-0.137,0.677-0.413,0.846-0.776    c0.169-0.363,0.188-0.771,0.05-1.147s-0.413-0.677-0.776-0.846C34.432,20.046,34.217,19.999,34.001,19.999z" fill="   #b450ee"/></g></g></svg>