<svg xmlns="http://www.w3.org/2000/svg" width="40" height="40" viewBox="0 0 40 40"><g class="nc-icon-wrapper" fill="#fff"><path d="m20 36c-1.031 0-2.962-1.11-4.02-1.771-1.793-1.119-3.52-2.455-4.737-3.668-3.164-3.154-4.906-7.067-4.906-11.018v-10.45c0-.36.229-.676.569-.789l12.83-4.262c.086-.028.174-.042.264-.042.088 0 .178.014.262.042l12.832 4.262c.34.113.569.429.569.789v10.451c0 3.95-1.741 7.863-4.906 11.018-1.22 1.213-2.946 2.549-4.737 3.668-1.06.66-2.991 1.77-4.02 1.77zm-12.001-16.456c0 3.506 1.569 7 4.416 9.84 2.62 2.61 6.747 4.955 7.585 4.955s4.963-2.345 7.583-4.955c2.849-2.84 4.418-6.334 4.418-9.84v-9.852l-12.001-3.988-12.001 3.988z"></path><path d="m20.006 28.786c-.17 0-.332-.051-.472-.147l-6.09-4.21c-.183-.127-.306-.315-.346-.535-.04-.218.008-.439.134-.621.155-.223.411-.358.684-.358.17 0 .332.052.472.146l5.618 3.885 5.303-3.665-.042-3.67h-11.351c-.458 0-.83-.372-.83-.83v-6.218c0-.458.372-.831.83-.831h12.182c.458 0 .83.373.83.831s-.372.829-.83.829h-11.351v4.558h11.351c.458 0 .83.372.83.831v4.966c0 .271-.134.527-.359.683l-6.089 4.21c-.14.095-.302.146-.474.146z"></path></g></svg>