
<svg xmlns="http://www.w3.org/2000/svg" height="64" viewBox="0 0 32 32" width="64">
    <defs>
        <linearGradient id="color1" x1="0" x2="1" y1="0" y2="1">
            <stop offset="0%" stop-color="#5F9C90"/>
            <stop offset="100%" stop-color="#3C403F"/>
        </linearGradient>
        <linearGradient id="color2" x1="0" x2="1" y1="0" y2="1">
            <stop offset="0%" stop-color="#389583"/>
            <stop offset="100%" stop-color=" #167A66"/>
        </linearGradient>
        <linearGradient id="color3" x1="0" x2="1" y1="0" y2="1">
            <stop offset="0%" stop-color="#389583"/>
            <stop offset="100%" stop-color="#8D8A38"/>
        </linearGradient>
    </defs>
  

   F05D5E - red
   F79F9F - pink
   F5E2D4 - light pink
   7BA419 - green
   F9CC45 - yellow


    
    <path d="M19.62 11.558l-3.203 2.98-2.972-5.995 1.538-3.448c.4-.7 1.024-.692 1.414 0" fill="url(#color1)"/>
    <path d="M13.445 8.543l2.972 5.995-11.97 11.135" fill="url(#color2)"/>
    <path d="M23.123 7.003c.572-.55 1.164-.362 1.315.417l3.116 18.105-10.328 6.2c-.36.2-1.32.286-1.32.286s-.874-.104-1.207-.3L4.447 25.673" fill="url(#color3)"/>
    <path d="M13.445 8.543l-8.997 17.13L8.455.638c.148-.78.592-.855.988-.167" fill="url(#color1)"/>
</svg>



