<svg xmlns="http://www.w3.org/2000/svg" version="1.1" viewBox="-5.0 -10.0 110.0 135.0">
 <path d="m21.438 21.242c0.83984-3.5586 3.9805-6.75 7.7383-8.875 2.2617-1.2812 4.7734-2.1953 7.1367-2.582 2.5195-0.41016 4.9297-0.22656 6.8164 0.73828 1.5625 0.80078 2.7422 2.0898 3.3242 3.9453 0.011719 0.035156 0.019531 0.066406 0.027344 0.10156l4.0469 12.207c0.050781 0.15234 0.082031 0.30859 0.089844 0.46094h0.003906c0.37109 5.5391-3.7422 8.8398-7.8477 12.137-0.46875 0.37891-0.9375 0.75391-1.418 1.1523 1.4414 4.1094 3.1172 7.9219 5.0977 11.559 1.9766 3.6328 4.2656 7.1094 6.9375 10.559 0.57031-0.17969 1.1562-0.375 1.7383-0.56641 4.9922-1.6523 10-3.3125 14.453 0.011719 0.16406 0.12109 0.30078 0.26562 0.41406 0.42188l8.043 10.023 0.003907-0.003906c1.2422 1.4961 1.6836 3.1797 1.5039 4.9258-0.21484 2.1055-1.3672 4.2305-3.0859 6.1289-1.6094 1.7773-3.7422 3.3867-6.0391 4.5859-3.8281 2-8.2148 2.9102-11.652 1.6797-11.816-4.2148-22.598-15.285-29.688-28.312-7.0898-13.02-10.523-28.086-7.6445-40.297zm9.5898-5.6094c-2.9336 1.6602-5.3516 4.0039-5.9297 6.4648-2.6641 11.293 0.59766 25.383 7.2734 37.656 6.6797 12.277 16.73 22.668 27.66 26.566 2.3867 0.85156 5.6719 0.097657 8.6523-1.4609 1.9219-1.0039 3.6836-2.332 4.9961-3.7812 1.2031-1.3281 2.0039-2.7227 2.1328-3.9844 0.078125-0.76172-0.11719-1.5-0.66797-2.1602l0.003907-0.003906-0.015626-0.019532-7.9648-9.9297c-2.8711-1.9766-6.8672-0.65234-10.855 0.66797-1.0156 0.33594-2.0312 0.67187-3.082 0.97656v-0.003906c-0.70703 0.19922-1.4961-0.027344-1.9844-0.63672-3.1328-3.9297-5.793-7.9062-8.0781-12.105-2.2578-4.1523-4.1367-8.5039-5.7266-13.227-0.30859-0.73047-0.13281-1.6016 0.49609-2.1484 0.73438-0.64062 1.6133-1.3477 2.4922-2.0508 3.2773-2.6328 6.5625-5.2695 6.4609-8.7578l-3.9609-11.945c-0.023438-0.054688-0.042969-0.10547-0.058594-0.16406-0.25781-0.81641-0.76953-1.3828-1.4453-1.7266-1.1289-0.57812-2.7344-0.66406-4.5078-0.37109-1.9375 0.31641-4.0078 1.0781-5.8906 2.1445z" fill-rule="evenodd"/>
<text x="0.0" y="122.5" font-size="5.0" font-weight="bold" font-family="Arbeit Regular, Helvetica, Arial-Unicode, Arial, Sans-serif" fill="#444d82">from Noun Project</text></svg>