<svg xmlns="http://www.w3.org/2000/svg" version="1.1" fill="#444D82" viewBox="20.31 3.13 59.38 93.75">  <g>   <path d="m50 29.688c-10.344 0-18.75 8.4062-18.75 18.75s8.4062 18.75 18.75 18.75 18.75-8.4062 18.75-18.75-8.4062-18.75-18.75-18.75zm0 34.375c-8.6094 0-15.625-7.0156-15.625-15.625s7.0156-15.625 15.625-15.625 15.625 7.0156 15.625 15.625-7.0156 15.625-15.625 15.625z"></path>   <path d="m55.141 42.641-7.4844 7.4844-2.7969-2.7969c-0.60938-0.60938-1.5938-0.60938-2.2031 0s-0.60938 1.5938 0 2.2031l3.9062 3.9062c0.3125 0.3125 0.70312 0.45312 1.1094 0.45312s0.79688-0.15625 1.1094-0.45312l8.5938-8.5938c0.60938-0.60938 0.60938-1.5938 0-2.2031s-1.5938-0.60938-2.2031 0z"></path>   <path d="m71.875 3.125h-43.75c-4.3125 0-7.8125 3.5-7.8125 7.8125v78.125c0 4.3125 3.5 7.8125 7.8125 7.8125h43.75c4.3125 0 7.8125-3.5 7.8125-7.8125v-78.125c0-4.3125-3.5-7.8125-7.8125-7.8125zm4.6875 85.938c0 2.5781-2.1094 4.6875-4.6875 4.6875h-43.75c-2.5781 0-4.6875-2.1094-4.6875-4.6875v-3.1719c1.3125 0.98438 2.9219 1.6094 4.6875 1.6094h43.75c1.7656 0 3.375-0.60938 4.6875-1.6094zm0-9.375c0 2.5781-2.1094 4.6875-4.6875 4.6875h-43.75c-2.5781 0-4.6875-2.1094-4.6875-4.6875v-62.5c0-2.5781 2.1094-4.6875 4.6875-4.6875h43.75c2.5781 0 4.6875 2.1094 4.6875 4.6875zm0-68.703c-1.3125-0.98438-2.9219-1.6094-4.6875-1.6094h-43.75c-1.7656 0-3.375 0.60938-4.6875 1.6094v-0.046875c0-2.5781 2.1094-4.6875 4.6875-4.6875h43.75c2.5781 0 4.6875 2.1094 4.6875 4.6875z"></path>   <path d="m53.125 89.062h-6.25c-0.85938 0-1.5625 0.70312-1.5625 1.5625s0.70312 1.5625 1.5625 1.5625h6.25c0.85938 0 1.5625-0.70312 1.5625-1.5625s-0.70312-1.5625-1.5625-1.5625z"></path>   </g> </svg>