<svg xmlns="http://www.w3.org/2000/svg" xmlns:xlink="http://www.w3.org/1999/xlink" version="1.1" x="0px" y="0px" style="enable-background:new 0 0 96 96;" xml:space="preserve" fill="#444D82" viewBox="3 13.65 90 68.69"><path d="M87.59,13.653H17.764c-2.983,0-5.41,2.864-5.41,6.384v0.548H7.779C5.144,20.585,3,22.729,3,25.364v34.617  c0,2.635,2.144,4.779,4.779,4.779h4.602c0.275,3.218,2.584,5.739,5.383,5.739h26.221l-2.1,3.505h-4.291  c-2.3,0-4.172,1.871-4.172,4.172v3.003c0,0.645,0.523,1.169,1.169,1.169h36.173c0.645,0,1.169-0.523,1.169-1.169v-3.003  c0-2.3-1.871-4.172-4.172-4.172h-4.291l-2.1-3.505H87.59c2.983,0,5.41-2.864,5.41-6.385V20.037  C93,16.517,90.573,13.653,87.59,13.653z M14.691,20.037c0-2.194,1.407-4.047,3.072-4.047H87.59c1.666,0,3.073,1.853,3.073,4.047  v38.901H35.241V25.364c0-2.635-2.144-4.779-4.779-4.779h-15.77V20.037z M5.338,59.981V25.364c0-1.346,1.095-2.442,2.442-2.442  h22.683c1.346,0,2.442,1.095,2.442,2.442v34.617c0,1.346-1.095,2.442-2.442,2.442H7.779C6.433,62.423,5.338,61.327,5.338,59.981z   M69.594,78.176v1.834H35.759v-1.834c0-1.011,0.823-1.834,1.834-1.834H67.76C68.772,76.342,69.594,77.164,69.594,78.176z   M60.744,74.004H44.61l2.1-3.505h11.934L60.744,74.004z M87.59,68.161H17.764c-1.499,0-2.784-1.502-3.028-3.401h15.726  c2.186,0,4.033-1.476,4.599-3.484h55.601v2.838C90.662,66.308,89.255,68.161,87.59,68.161z M57.632,64.719  c0,0.645-0.523,1.169-1.169,1.169h-7.572c-0.645,0-1.169-0.523-1.169-1.169c0-0.645,0.523-1.169,1.169-1.169h7.572  C57.108,63.55,57.632,64.073,57.632,64.719z M31.062,27.94c0-1.915-1.558-3.473-3.473-3.473H10.652  c-1.915,0-3.473,1.558-3.473,3.473v26.821c0,1.915,1.558,3.473,3.473,3.473h16.938c1.915,0,3.473-1.558,3.473-3.473V27.94z   M28.725,54.761c0,0.626-0.509,1.135-1.135,1.135H10.652c-0.626,0-1.135-0.509-1.135-1.135V27.94c0-0.626,0.509-1.135,1.135-1.135  h16.938c0.626,0,1.135,0.509,1.135,1.135V54.761z M22.235,60.328c0,0.645-0.523,1.169-1.169,1.169h-3.891  c-0.645,0-1.169-0.523-1.169-1.169s0.523-1.169,1.169-1.169h3.891C21.711,59.159,22.235,59.683,22.235,60.328z M14.423,42.019  c-0.299,0-0.598-0.114-0.826-0.342c-0.456-0.456-0.456-1.197,0-1.653l4.197-4.197c0.457-0.456,1.196-0.456,1.653,0  c0.456,0.456,0.456,1.197,0,1.653l-4.197,4.197C15.021,41.904,14.722,42.019,14.423,42.019z M24.644,36.698  c0.456,0.456,0.456,1.197,0,1.653l-8.523,8.523c-0.228,0.228-0.527,0.342-0.826,0.342s-0.598-0.114-0.826-0.342  c-0.456-0.456-0.456-1.197,0-1.653l8.523-8.523C23.448,36.241,24.188,36.241,24.644,36.698z M46.208,44.15h12.12l9.959,9.959  c0.224,0.224,0.523,0.342,0.827,0.342c0.15,0,0.302-0.029,0.447-0.089c0.437-0.181,0.722-0.607,0.722-1.08V44.15h7.428  c1.871,0,3.392-1.522,3.392-3.392V23.624c0-1.871-1.522-3.392-3.392-3.392H46.208c-1.871,0-3.392,1.522-3.392,3.392v17.134  C42.816,42.628,44.338,44.15,46.208,44.15z M45.154,23.624c0-0.582,0.473-1.055,1.055-1.055h31.503c0.582,0,1.055,0.473,1.055,1.055  v17.134c0,0.581-0.473,1.055-1.055,1.055h-8.597c-0.645,0-1.169,0.523-1.169,1.169v7.48l-8.306-8.306  c-0.219-0.219-0.516-0.342-0.826-0.342H46.208c-0.581,0-1.055-0.473-1.055-1.055V23.624z M50.33,26.818  c0-0.645,0.523-1.169,1.169-1.169h20.922c0.645,0,1.169,0.523,1.169,1.169c0,0.645-0.523,1.169-1.169,1.169H51.499  C50.853,27.987,50.33,27.464,50.33,26.818z M50.33,32.191c0-0.645,0.523-1.169,1.169-1.169h20.922c0.645,0,1.169,0.523,1.169,1.169  c0,0.645-0.523,1.169-1.169,1.169H51.499C50.853,33.359,50.33,32.836,50.33,32.191z M50.33,37.563c0-0.645,0.523-1.169,1.169-1.169  H61.96c0.645,0,1.169,0.523,1.169,1.169s-0.523,1.169-1.169,1.169H51.499C50.853,38.732,50.33,38.208,50.33,37.563z"/></svg>