<?xml version="1.0" ?><svg id="cloud_information" viewBox="0 0 64 64" xmlns="http://www.w3.org/2000/svg"><title/><path d="M40,40H51.5a8.5,8.5,0,0,0,0-17c-.2,0-.4.016-.593.03a13.488,13.488,0,0,0-25-8.416,7.995,7.995,0,0,0-13.3,8.434A8.5,8.5,0,0,0,13.5,40h7.833" style="fill:none;stroke:#000;stroke-linecap:round;stroke-linejoin:round;stroke-width:2px"/><polyline points="40 27 30 27 30 54 8 54 8 49" style="fill:none;stroke:#000;stroke-linecap:round;stroke-linejoin:round;stroke-width:2px"/><polyline points="21 29 26 35 26 47 19 47" style="fill:none;stroke:#000;stroke-linecap:round;stroke-linejoin:round;stroke-width:2px"/><polyline points="36 37 36 47 58 47" style="fill:none;stroke:#000;stroke-linecap:round;stroke-linejoin:round;stroke-width:2px"/><circle cx="43" cy="27" r="3" style="fill:none;stroke:#000;stroke-linecap:round;stroke-linejoin:round;stroke-width:2px"/><circle cx="19" cy="27" r="3" style="fill:none;stroke:#000;stroke-linecap:round;stroke-linejoin:round;stroke-width:2px"/><circle cx="36" cy="34" r="3" style="fill:none;stroke:#000;stroke-linecap:round;stroke-linejoin:round;stroke-width:2px"/><circle cx="8" cy="46" r="3" style="fill:none;stroke:#000;stroke-linecap:round;stroke-linejoin:round;stroke-width:2px"/><polyline points="36 52 45 52 49 59 57 59" style="fill:none;stroke:#000;stroke-linecap:round;stroke-linejoin:round;stroke-width:2px"/><line style="fill:none;stroke:#000;stroke-linecap:round;stroke-linejoin:round;stroke-width:2px" x1="40.326" x2="44" y1="59" y2="59"/><line style="fill:none;stroke:#000;stroke-linecap:round;stroke-linejoin:round;stroke-width:2px" x1="9" x2="33.64" y1="59" y2="59"/><circle cx="37" cy="59" r="3" style="fill:none;stroke:#000;stroke-linecap:round;stroke-linejoin:round;stroke-width:2px"/></svg>