<!-- <svg xmlns="http://www.w3.org/2000/svg" width="36" height="36" viewBox="0 0 36 36"><path fill="#444d82" d="M19.5 28.1h-2.9c-.5 0-.9-.3-1-.8l-.5-1.8l-.4-.2l-1.6.9c-.4.2-.9.2-1.2-.2l-2.1-2.1c-.3-.3-.4-.8-.2-1.2l.9-1.6l-.2-.4l-1.8-.5c-.4-.1-.8-.5-.8-1v-2.9c0-.5.3-.9.8-1l1.8-.5l.2-.4l-.9-1.6c-.2-.4-.2-.9.2-1.2l2.1-2.1c.3-.3.8-.4 1.2-.2l1.6.9l.4-.2l.5-1.8c.1-.4.5-.8 1-.8h2.9c.5 0 .9.3 1 .8L21 10l.4.2l1.6-.9c.4-.2.9-.2 1.2.2l2.1 2.1c.3.3.4.8.2 1.2l-.9 1.6l.2.4l1.8.5c.4.1.8.5.8 1v2.9c0 .5-.3.9-.8 1l-1.8.5l-.2.4l.9 1.6c.2.4.2.9-.2 1.2L24.2 26c-.3.3-.8.4-1.2.2l-1.6-.9l-.4.2l-.5 1.8c-.2.5-.6.8-1 .8m-2.2-2h1.4l.5-2.1l.5-.2c.4-.1.7-.3 1.1-.4l.5-.3l1.9 1.1l1-1l-1.1-1.9l.3-.5c.2-.3.3-.7.4-1.1l.2-.5l2.1-.5v-1.4l-2.1-.5l-.2-.5c-.1-.4-.3-.7-.4-1.1l-.3-.5l1.1-1.9l-1-1l-1.9 1.1l-.5-.3c-.3-.2-.7-.3-1.1-.4l-.5-.2l-.5-2.1h-1.4l-.5 2.1l-.5.2c-.4.1-.7.3-1.1.4l-.5.3l-1.9-1.1l-1 1l1.1 1.9l-.3.5c-.2.3-.3.7-.4 1.1l-.2.5l-2.1.5v1.4l2.1.5l.2.5c.1.4.3.7.4 1.1l.3.5l-1.1 1.9l1 1l1.9-1.1l.5.3c.3.2.7.3 1.1.4l.5.2zm9.8-6.6"/><path fill="#444d82" d="M18 22.3c-2.4 0-4.3-1.9-4.3-4.3s1.9-4.3 4.3-4.3s4.3 1.9 4.3 4.3s-1.9 4.3-4.3 4.3m0-6.6c-1.3 0-2.3 1-2.3 2.3s1 2.3 2.3 2.3s2.3-1 2.3-2.3s-1-2.3-2.3-2.3"/><path fill="#444d82" d="M18 2c-.6 0-1 .4-1 1s.4 1 1 1c7.7 0 14 6.3 14 14s-6.3 14-14 14S4 25.7 4 18c0-2.8.8-5.5 2.4-7.8v1.2c0 .6.4 1 1 1s1-.4 1-1v-5h-5c-.6 0-1 .4-1 1s.4 1 1 1h1.8C3.1 11.1 2 14.5 2 18c0 8.8 7.2 16 16 16s16-7.2 16-16S26.8 2 18 2"/><path fill="none" d="M0 0h36v36H0z"/></svg> -->
<!-- <svg xmlns="http://www.w3.org/2000/svg" width="48" height="48" viewBox="0 0 48 48"><g fill="none" stroke="#444d82" stroke-linecap="round" stroke-linejoin="round" stroke-width="1.5"><path d="M24 44c11.046 0 20-8.954 20-20S35.046 4 24 4S4 12.954 4 24s8.954 20 20 20"/><path d="M33.542 27c-1.274 4.057-5.064 7-9.542 7s-8.268-2.943-9.542-7v6m19.084-18v6c-1.274-4.057-5.064-7-9.542-7s-8.268 2.943-9.542 7"/></g></svg> -->
<svg xmlns="http://www.w3.org/2000/svg" width="24" height="24" viewBox="0 0 24 24">
	<g fill="none" stroke="#444d82" stroke-linecap="round" stroke-linejoin="round" stroke-width="1.5">
		<path d="M12.501 20.93c-.866.25-1.914-.166-2.176-1.247a1.724 1.724 0 0 0-2.573-1.066c-1.543.94-3.31-.826-2.37-2.37a1.724 1.724 0 0 0-1.065-2.572c-1.756-.426-1.756-2.924 0-3.35a1.724 1.724 0 0 0 1.066-2.573c-.94-1.543.826-3.31 2.37-2.37c1 .608 2.296.07 2.572-1.065c.426-1.756 2.924-1.756 3.35 0a1.724 1.724 0 0 0 2.573 1.066c1.543-.94 3.31.826 2.37 2.37a1.724 1.724 0 0 0 1.065 2.572c1.074.26 1.49 1.296 1.252 2.158M19 22v-6m3 3l-3-3l-3 3" />
		<path d="M9 12a3 3 0 1 0 6 0a3 3 0 0 0-6 0" />
	</g>
</svg>