<?xml version="1.0" ?><!DOCTYPE svg  PUBLIC '-//W3C//DTD SVG 1.1//EN'  'http://www.w3.org/Graphics/SVG/1.1/DTD/svg11.dtd'><svg enable-background="new 0 0 48 48" height="48px" id="_x3C_Layer_x3E_" version="1.1" viewBox="0 0 48 48" width="48px" xml:space="preserve" xmlns="http://www.w3.org/2000/svg" xmlns:xlink="http://www.w3.org/1999/xlink"><g id="admin_x2C__admin_panel_x2C__site"><g><path d="M45,43H3c-0.552,0-1-0.448-1-1v-7.5C2,34.224,2.224,34,2.5,34S3,34.224,3,34.5V42h42V12H3v7.5    C3,19.776,2.776,20,2.5,20S2,19.776,2,19.5V11h44v31C46,42.552,45.552,43,45,43z" fill="#f698d4"/><g><path d="M45.5,12h-43C2.224,12,2,11.776,2,11.5v-5C2,5.673,2.673,5,3.5,5h41C45.327,5,46,5.673,46,6.5v5     C46,11.776,45.776,12,45.5,12z M3,11h42V6.5C45,6.225,44.775,6,44.5,6h-41C3.225,6,3,6.225,3,6.5V11z" fill="#f698d4"/></g><g><g><path d="M16.5,10C15.673,10,15,9.327,15,8.5S15.673,7,16.5,7S18,7.673,18,8.5S17.327,10,16.5,10z M16.5,8      C16.225,8,16,8.225,16,8.5S16.225,9,16.5,9S17,8.775,17,8.5S16.775,8,16.5,8z" fill="#f698d4"/></g><g><path d="M11.5,10C10.673,10,10,9.327,10,8.5S10.673,7,11.5,7S13,7.673,13,8.5S12.327,10,11.5,10z M11.5,8      C11.225,8,11,8.225,11,8.5S11.225,9,11.5,9S12,8.775,12,8.5S11.775,8,11.5,8z" fill="#f698d4"/></g><g><path d="M6.5,10C5.673,10,5,9.327,5,8.5S5.673,7,6.5,7S8,7.673,8,8.5S7.327,10,6.5,10z M6.5,8      C6.225,8,6,8.225,6,8.5S6.225,9,6.5,9S7,8.775,7,8.5S6.775,8,6.5,8z" fill="#f698d4"/></g></g></g><g><path d="M21.4,32.528c-0.065,0-0.132-0.013-0.196-0.04c-0.13-0.056-0.266-0.1-0.405-0.136l-3.186-0.796    C16.648,31.314,16,30.488,16,29.5v-1.2c0-0.276,0.224-0.5,0.5-0.5s0.5,0.224,0.5,0.5v1.2c0,0.529,0.336,0.956,0.855,1.086    l3.188,0.797c0.192,0.049,0.377,0.11,0.554,0.186c0.254,0.108,0.372,0.402,0.264,0.656C21.779,32.414,21.595,32.528,21.4,32.528z" fill="#f698d4"/><path d="M6.481,32.577c-0.188,0-0.369-0.107-0.454-0.29c-0.115-0.25-0.007-0.548,0.244-0.664    c0.218-0.101,0.445-0.182,0.677-0.239l3.188-0.798C10.652,30.457,11,30.021,11,29.5v-1.404c0-0.276,0.224-0.5,0.5-0.5    s0.5,0.224,0.5,0.5V29.5c0,0.987-0.651,1.813-1.622,2.057l-3.187,0.797c-0.173,0.044-0.34,0.104-0.5,0.178    C6.624,32.563,6.552,32.577,6.481,32.577z" fill="#f698d4"/><path d="M14,30c-0.276,0-0.5-0.224-0.5-0.5S13.724,29,14,29c1.652,0,3.5-2.319,3.5-5.423    C17.5,20.797,16.126,19,14,19s-3.5,1.797-3.5,4.577c0,1.59,0.506,3.121,1.387,4.203c0.175,0.214,0.143,0.528-0.072,0.703    c-0.213,0.173-0.529,0.144-0.703-0.072C10.087,27.155,9.5,25.393,9.5,23.577C9.5,19.725,11.76,18,14,18s4.5,1.725,4.5,5.577    C18.5,26.999,16.397,30,14,30z" fill="#f698d4"/><path d="M14,39C7.383,39,2,33.617,2,27s5.383-12,12-12s12,5.383,12,12S20.617,39,14,39z M14,16    C7.935,16,3,20.935,3,27s4.935,11,11,11s11-4.935,11-11S20.065,16,14,16z" fill="#f698d4"/></g><g><path d="M42.5,24h-15c-0.276,0-0.5-0.224-0.5-0.5s0.224-0.5,0.5-0.5h15c0.276,0,0.5,0.224,0.5,0.5    S42.776,24,42.5,24z" fill="#f698d4"/><path d="M42.5,24c-0.276,0-0.5-0.224-0.5-0.5v-6c0-0.276,0.224-0.5,0.5-0.5s0.5,0.224,0.5,0.5v6    C43,23.776,42.776,24,42.5,24z" fill="#f698d4"/><path d="M39.5,24c-0.276,0-0.5-0.224-0.5-0.5v-4c0-0.276,0.224-0.5,0.5-0.5s0.5,0.224,0.5,0.5v4    C40,23.776,39.776,24,39.5,24z" fill="#f698d4"/><path d="M36.5,24c-0.276,0-0.5-0.224-0.5-0.5v-5c0-0.276,0.224-0.5,0.5-0.5s0.5,0.224,0.5,0.5v5    C37,23.776,36.776,24,36.5,24z" fill="#f698d4"/><path d="M33.5,24c-0.276,0-0.5-0.224-0.5-0.5v-3c0-0.276,0.224-0.5,0.5-0.5s0.5,0.224,0.5,0.5v3    C34,23.776,33.776,24,33.5,24z" fill="#f698d4"/><path d="M30.5,24c-0.276,0-0.5-0.224-0.5-0.5v-8c0-0.276,0.224-0.5,0.5-0.5s0.5,0.224,0.5,0.5v8    C31,23.776,30.776,24,30.5,24z" fill="#f698d4"/><path d="M27.5,24c-0.276,0-0.5-0.224-0.5-0.5v-4c0-0.276,0.224-0.5,0.5-0.5s0.5,0.224,0.5,0.5v4    C28,23.776,27.776,24,27.5,24z" fill="#f698d4"/></g><g><g><path d="M42.5,37h-6c-0.276,0-0.5-0.224-0.5-0.5s0.224-0.5,0.5-0.5h6c0.276,0,0.5,0.224,0.5,0.5     S42.776,37,42.5,37z" fill="#f698d4"/><path d="M42.5,35h-6c-0.276,0-0.5-0.224-0.5-0.5s0.224-0.5,0.5-0.5h6c0.276,0,0.5,0.224,0.5,0.5     S42.776,35,42.5,35z" fill="#f698d4"/><g><path d="M42,33h-5c-0.552,0-1-0.448-1-1v-4c0-0.552,0.448-1,1-1h5c0.552,0,1,0.448,1,1v4      C43,32.552,42.552,33,42,33z M42,32v0.5V32L42,32z M37,28v4h5v-4H37z" fill="#f698d4"/></g></g><g><path d="M33.5,37h-6c-0.276,0-0.5-0.224-0.5-0.5s0.224-0.5,0.5-0.5h6c0.276,0,0.5,0.224,0.5,0.5     S33.776,37,33.5,37z" fill="#f698d4"/><path d="M33.5,35h-6c-0.276,0-0.5-0.224-0.5-0.5s0.224-0.5,0.5-0.5h6c0.276,0,0.5,0.224,0.5,0.5     S33.776,35,33.5,35z" fill="#f698d4"/><g><path d="M33,33h-5c-0.552,0-1-0.448-1-1v-4c0-0.552,0.448-1,1-1h5c0.552,0,1,0.448,1,1v4      C34,32.552,33.552,33,33,33z M33,32v0.5V32L33,32z M28,28v4h5v-4H28z" fill="#f698d4"/></g></g></g></g></svg>