<svg xmlns="http://www.w3.org/2000/svg" width="500" height="500" viewBox="0 0 500 500"><g class="nc-icon-wrapper" fill="#f7f7f7"><path clip-rule="evenodd" d="M51.915,342.866h396.169V120.794c0-7.3-5.974-13.264-13.285-13.264H65.189c-7.301,0-13.274,5.963-13.274,13.264V342.866z" fill="none" fill-rule="evenodd" stroke="#f7f7f7" stroke-linecap="round" stroke-linejoin="round" stroke-miterlimit="2.613" stroke-width="10"></path><path clip-rule="evenodd" d="M259.483,144.506h137.218c1.769,0,3.214,1.445,3.214,3.213v64.55c0,1.768-1.445,3.213-3.214,3.213H259.483 c-1.779,0-3.224-1.445-3.224-3.213v-64.55C256.26,145.952,257.704,144.506,259.483,144.506z" fill="none" fill-rule="evenodd" stroke="#f7f7f7" stroke-linecap="round" stroke-linejoin="round" stroke-miterlimit="2.613" stroke-width="10"></path><path clip-rule="evenodd" fill="none" fill-rule="evenodd" stroke="#f7f7f7" stroke-linecap="round" stroke-linejoin="round" stroke-miterlimit="2.613" stroke-width="10" d="M25 342.985L475 342.985 475 377.61"></path><path clip-rule="evenodd" d="M475,377.61c0,8.185-6.697,14.859-14.85,14.859" fill="none" fill-rule="evenodd" stroke="#f7f7f7" stroke-linecap="round" stroke-linejoin="round" stroke-miterlimit="2.613" stroke-width="10"></path><path clip-rule="evenodd" fill="none" fill-rule="evenodd" stroke="#f7f7f7" stroke-linecap="round" stroke-linejoin="round" stroke-miterlimit="2.613" stroke-width="10" d="M460.15 392.47L36.894 392.47"></path><path clip-rule="evenodd" d="M36.894,392.47c-6.545,0-11.894-5.349-11.894-11.895" fill="none" fill-rule="evenodd" stroke="#f7f7f7" stroke-linecap="round" stroke-linejoin="round" stroke-miterlimit="2.613" stroke-width="10"></path><path clip-rule="evenodd" fill="none" fill-rule="evenodd" stroke="#f7f7f7" stroke-linecap="round" stroke-linejoin="round" stroke-miterlimit="2.613" stroke-width="10" d="M25 380.575L25 342.985"></path><path clip-rule="evenodd" fill="none" fill-rule="evenodd" stroke="#f7f7f7" stroke-linecap="round" stroke-linejoin="round" stroke-miterlimit="2.613" stroke-width="10" d="M46.847 367.722L192.681 367.722"></path><path clip-rule="evenodd" d="M402.233,370.871c1.736,0,3.138-1.424,3.138-3.149c0-1.747-1.401-3.138-3.138-3.138s-3.148,1.391-3.148,3.138 C399.085,369.447,400.497,370.871,402.233,370.871" fill="none" fill-rule="evenodd" stroke="#f7f7f7" stroke-linecap="round" stroke-linejoin="round" stroke-miterlimit="2.613" stroke-width="10"></path><path clip-rule="evenodd" d="M425.806,370.871c1.736,0,3.149-1.424,3.149-3.149c0-1.747-1.413-3.138-3.149-3.138c-1.747,0-3.138,1.391-3.138,3.138 C422.668,369.447,424.059,370.871,425.806,370.871" fill="none" fill-rule="evenodd" stroke="#f7f7f7" stroke-linecap="round" stroke-linejoin="round" stroke-miterlimit="2.613" stroke-width="10"></path><path clip-rule="evenodd" d="M447.416,370.871c1.736,0,3.148-1.424,3.148-3.149c0-1.747-1.412-3.138-3.148-3.138c-1.726,0-3.139,1.391-3.139,3.138 C444.277,369.447,445.69,370.871,447.416,370.871" fill="none" fill-rule="evenodd" stroke="#f7f7f7" stroke-linecap="round" stroke-linejoin="round" stroke-miterlimit="2.613" stroke-width="10"></path><path clip-rule="evenodd" fill="none" fill-rule="evenodd" stroke="#f7f7f7" stroke-linecap="round" stroke-linejoin="round" stroke-miterlimit="2.613" stroke-width="10" d="M253.865 243.002L399.915 243.002"></path><path clip-rule="evenodd" fill="none" fill-rule="evenodd" stroke="#f7f7f7" stroke-linecap="round" stroke-linejoin="round" stroke-miterlimit="2.613" stroke-width="10" d="M401.554 267.76L200.132 267.76"></path><path clip-rule="evenodd" fill="none" fill-rule="evenodd" stroke="#f7f7f7" stroke-linecap="round" stroke-linejoin="round" stroke-miterlimit="2.613" stroke-width="10" d="M179.515 267.76L91.684 267.76"></path><path clip-rule="evenodd" fill="none" fill-rule="evenodd" stroke="#f7f7f7" stroke-linecap="round" stroke-linejoin="round" stroke-miterlimit="2.613" stroke-width="10" d="M91.684 292.519L215.239 292.519"></path><path clip-rule="evenodd" fill="none" fill-rule="evenodd" stroke="#f7f7f7" stroke-linecap="round" stroke-linejoin="round" stroke-miterlimit="2.613" stroke-width="10" d="M235.286 292.519L401.554 292.519"></path><path clip-rule="evenodd" fill="none" fill-rule="evenodd" stroke="#f7f7f7" stroke-linecap="round" stroke-linejoin="round" stroke-miterlimit="2.613" stroke-width="10" d="M91.684 317.277L401.554 317.277"></path><g><path clip-rule="evenodd" fill="none" fill-rule="evenodd" stroke="#f7f7f7" stroke-linecap="round" stroke-linejoin="round" stroke-miterlimit="2.613" stroke-width="10" d="M124.218 158.514L94.003 189.829 124.843 221.468"></path><path clip-rule="evenodd" fill="none" fill-rule="evenodd" stroke="#f7f7f7" stroke-linecap="round" stroke-linejoin="round" stroke-miterlimit="2.613" stroke-width="10" d="M185.747 158.514L215.962 189.829 185.122 221.468"></path><path clip-rule="evenodd" fill="none" fill-rule="evenodd" stroke="#f7f7f7" stroke-linecap="round" stroke-linejoin="round" stroke-miterlimit="2.613" stroke-width="10" d="M173.195 144.506L139.67 235.464"></path></g></g></svg>