<svg xmlns="http://www.w3.org/2000/svg" width="144" height="144" viewBox="0 0 48 48"><g class="nc-icon-wrapper"><path fill="#eceff1" d="M24 4L7 14 7 34 24 44 41 34 41 14z"></path><path fill="#0277bd" d="M23.5 24.5L23.5 33.5 15 29 15 19.5z"></path><path fill="#0277bd" d="M24.5 24.5L24.5 33.5 33 29 33 19.5z"></path><path fill="#0277bd" d="M24 23.5L15.5 18.5 24 14 32.5 18.5z"></path><path fill="#81d4fa" d="M23.5 7L23.5 13 14.5 18 9.5 15z"></path><path fill="#81d4fa" d="M23.5 41L23.5 35 14.5 30 9.5 33z"></path><path fill="#81d4fa" d="M14 19L9 16 9 32 14 29z"></path><path fill="#81d4fa" d="M24.5 7L24.5 13 33.5 18 38.5 15z"></path><path fill="#81d4fa" d="M24.5 41L24.5 35 33.5 30 38.5 33z"></path><path fill="#81d4fa" d="M34 19L39 16 39 32 34 29z"></path></g></svg>