<?xml version="1.0" ?><!DOCTYPE svg  PUBLIC '-//W3C//DTD SVG 1.1//EN'  'http://www.w3.org/Graphics/SVG/1.1/DTD/svg11.dtd'><svg enable-background="new 0 0 65 65" id="Layer_1" version="1.1" viewBox="0 0 65 65" xml:space="preserve" xmlns="http://www.w3.org/2000/svg" xmlns:xlink="http://www.w3.org/1999/xlink"><g><path d="M61.5,0.7h-58c-2.1,0-3.8,1.7-3.8,3.8v56.2c0,2.1,1.7,3.7,3.8,3.7h58c2.1,0,3.8-1.7,3.8-3.7V4.4   C65.3,2.3,63.6,0.7,61.5,0.7z M3.5,2.2h58c1.2,0,2.3,1,2.3,2.3v3H1.3v-3C1.3,3.2,2.3,2.2,3.5,2.2z M61.5,62.8h-58   c-1.2,0-2.3-1-2.3-2.3V8.9h62.5v51.6C63.8,61.8,62.7,62.8,61.5,62.8z"/><rect height="1.5" width="1.5" x="10.8" y="4.1"/><rect height="1.5" width="1.5" x="3.8" y="4.1"/><rect height="1.5" width="1.5" x="7.3" y="4.1"/><path d="M36.4,13.2H4.5v14.9h31.9V13.2z M34.9,26.6H6V14.7h28.9V26.6z"/><path d="M38.7,28.1h21.7V13.2H38.7V28.1z M50.9,20.6l8-5.3v10.6L50.9,20.6z M57.1,26.6H41.9l7.6-5L57.1,26.6z M49.5,19.7l-7.6-5   h15.2L49.5,19.7z M48.2,20.6l-8,5.3V15.4L48.2,20.6z"/><path d="M25.4,38.2c0,3.9,3.1,7,7,7c3.9,0,7-3.1,7-7s-3.1-7-7-7C28.6,31.2,25.4,34.3,25.4,38.2z M37.9,38.2c0,3-2.5,5.5-5.5,5.5   s-5.5-2.5-5.5-5.5c0-3,2.5-5.5,5.5-5.5S37.9,35.1,37.9,38.2z"/><path d="M11.5,45.2c3.9,0,7-3.1,7-7s-3.1-7-7-7c-3.9,0-7,3.1-7,7S7.6,45.2,11.5,45.2z M11.5,32.7c3,0,5.5,2.5,5.5,5.5   c0,3-2.5,5.5-5.5,5.5S6,41.2,6,38.2C6,35.1,8.4,32.7,11.5,32.7z"/><path d="M53.4,31.2c-3.9,0-7,3.1-7,7s3.1,7,7,7s7-3.1,7-7S57.2,31.2,53.4,31.2z M53.4,43.7c-3,0-5.5-2.5-5.5-5.5   c0-3,2.5-5.5,5.5-5.5c3,0,5.5,2.5,5.5,5.5C58.9,41.2,56.4,43.7,53.4,43.7z"/><rect height="1.5" width="54.4" x="5.2" y="50"/><rect height="1.5" width="39.2" x="5.2" y="54.9"/></g></svg>