<?xml version="1.0" standalone="no"?>
<!DOCTYPE svg PUBLIC "-//W3C//DTD SVG 20010904//EN"
 "http://www.w3.org/TR/2001/REC-SVG-20010904/DTD/svg10.dtd">
<svg version="1.0" xmlns="http://www.w3.org/2000/svg"
 width="1100.000000pt" height="622.000000pt" viewBox="0 0 1100.000000 622.000000"
 preserveAspectRatio="xMidYMid meet">

<g transform="translate(0.000000,622.000000) scale(0.100000,-0.100000)"
fill="#000000" stroke="none">
<path d="M3790 5871 c0 -17 2 -31 4 -31 8 0 13 51 5 56 -5 3 -9 -9 -9 -25z"/>
<path d="M4082 5880 c0 -14 2 -19 5 -12 2 6 2 18 0 25 -3 6 -5 1 -5 -13z"/>
<path d="M6941 5870 c0 -33 1 -34 10 -11 6 16 6 28 -1 35 -7 7 -10 -1 -9 -24z"/>
<path d="M7004 5889 c-3 -6 -1 -16 5 -22 8 -8 11 -5 11 11 0 24 -5 28 -16 11z"/>
<path d="M3051 5874 c0 -11 3 -14 6 -6 3 7 2 16 -1 19 -3 4 -6 -2 -5 -13z"/>
<path d="M4652 5870 c0 -14 2 -19 5 -12 2 6 2 18 0 25 -3 6 -5 1 -5 -13z"/>
<path d="M6160 5879 c0 -5 5 -7 10 -4 6 3 10 8 10 11 0 2 -4 4 -10 4 -5 0 -10
-5 -10 -11z"/>
<path d="M7560 5879 c0 -5 5 -7 10 -4 6 3 10 8 10 11 0 2 -4 4 -10 4 -5 0 -10
-5 -10 -11z"/>
<path d="M3715 5860 c-3 -5 -1 -10 4 -10 6 0 11 5 11 10 0 6 -2 10 -4 10 -3 0
-8 -4 -11 -10z"/>
<path d="M5051 5854 c0 -11 3 -14 6 -6 3 7 2 16 -1 19 -3 4 -6 -2 -5 -13z"/>
<path d="M7040 5861 c0 -5 5 -13 10 -16 6 -3 10 -2 10 4 0 5 -4 13 -10 16 -5
3 -10 2 -10 -4z"/>
<path d="M7256 5855 c-3 -8 -1 -15 4 -15 6 0 10 7 10 15 0 8 -2 15 -4 15 -2 0
-6 -7 -10 -15z"/>
<path d="M7475 5860 c-3 -5 -1 -10 4 -10 6 0 11 5 11 10 0 6 -2 10 -4 10 -3 0
-8 -4 -11 -10z"/>
<path d="M4465 5076 c-27 -20 -15 -51 20 -51 23 0 31 5 33 22 4 29 -28 47 -53
29z"/>
<path d="M5635 5076 c-27 -20 -15 -51 20 -51 23 0 31 5 33 22 4 29 -28 47 -53
29z"/>
<path d="M6563 5083 c-19 -7 -16 -53 3 -60 22 -8 49 10 49 32 0 19 -31 35 -52
28z"/>
<path d="M7255 5076 c-27 -20 -15 -51 20 -51 23 0 31 5 33 22 4 29 -28 47 -53
29z"/>
<path d="M6440 4925 l0 -135 30 0 30 0 0 135 0 135 -30 0 -30 0 0 -135z"/>
<path d="M3030 4920 l0 -130 69 0 c110 0 166 50 158 143 -7 80 -60 117 -167
117 l-60 0 0 -130z m118 69 c38 -13 56 -57 41 -97 -13 -34 -26 -42 -66 -42
l-33 0 0 68 c0 87 3 90 58 71z"/>
<path d="M3550 5006 c-21 -41 -22 -46 -6 -61 10 -11 16 -33 16 -66 0 -58 24
-89 70 -89 25 0 30 4 30 24 0 16 -7 27 -20 31 -16 5 -20 15 -20 52 0 36 4 46
20 50 27 7 28 53 1 53 -13 0 -21 8 -23 23 -2 14 -11 23 -25 25 -16 2 -26 -7
-43 -42z"/>
<path d="M4030 4920 l0 -130 60 0 c77 0 124 20 150 62 40 66 13 155 -55 184
-19 8 -62 14 -95 14 l-60 0 0 -130z m117 69 c35 -13 43 -25 43 -71 0 -46 -21
-68 -66 -68 l-34 0 0 68 c0 87 4 91 57 71z"/>
<path d="M5340 5038 c0 -7 19 -65 43 -128 l42 -115 40 0 40 0 42 115 c24 63
43 121 43 128 0 9 -11 12 -32 10 -30 -3 -33 -6 -57 -85 -14 -46 -30 -83 -36
-83 -6 0 -22 37 -35 83 -24 79 -26 82 -58 85 -21 2 -32 -1 -32 -10z"/>
<path d="M7107 5043 c-4 -3 -7 -15 -7 -25 0 -10 -4 -18 -10 -18 -5 0 -10 -11
-10 -24 0 -14 5 -28 10 -31 6 -3 10 -26 10 -50 0 -77 31 -114 87 -103 26 5 29
44 4 51 -41 10 -37 107 5 107 25 0 16 40 -11 50 -14 5 -25 13 -24 17 4 23 -3
33 -24 33 -13 0 -27 -3 -30 -7z"/>
<path d="M3321 4974 c-28 -23 -31 -32 -31 -80 0 -44 5 -59 24 -79 21 -21 32
-23 105 -23 l81 0 0 100 c0 82 -3 100 -16 105 -9 3 -24 2 -33 -4 -9 -6 -25 -7
-36 -2 -36 14 -63 9 -94 -17z m116 -60 c9 -24 -6 -62 -28 -69 -48 -15 -80 59
-37 89 23 16 54 7 65 -20z"/>
<path d="M3718 4970 c-23 -24 -28 -37 -28 -78 0 -39 5 -54 25 -75 24 -23 33
-25 106 -24 l80 0 -3 101 -3 101 -74 1 c-70 2 -77 0 -103 -26z m120 -72 c3
-27 -20 -58 -43 -58 -20 0 -45 28 -45 51 0 10 9 28 21 40 18 18 23 19 42 6 12
-8 23 -26 25 -39z"/>
<path d="M4307 4993 c-4 -3 -7 -51 -7 -105 l0 -99 28 3 c25 3 27 6 30 58 3 60
14 80 43 80 15 0 19 7 19 35 0 39 -2 40 -32 24 -14 -8 -23 -8 -31 0 -12 12
-40 15 -50 4z"/>
<path d="M4455 4987 c-3 -7 -5 -54 -3 -103 l3 -89 30 0 30 0 0 100 0 100 -28
3 c-16 2 -29 -2 -32 -11z"/>
<path d="M4557 4993 c-3 -5 9 -51 28 -103 l32 -95 42 -3 c22 -2 41 -1 41 1 0
2 16 47 35 101 28 78 32 98 20 102 -27 11 -50 -1 -59 -31 -5 -17 -16 -46 -24
-65 l-14 -35 -22 65 c-19 55 -26 65 -48 68 -15 2 -28 -1 -31 -5z"/>
<path d="M4844 4991 c-35 -15 -54 -51 -54 -102 0 -40 4 -51 31 -73 39 -33 95
-35 133 -5 14 11 26 27 26 35 0 18 -43 19 -70 2 -15 -10 -25 -10 -38 -2 -31
20 -18 29 51 32 67 3 67 3 67 32 0 62 -83 108 -146 81z m74 -63 c3 -14 -3 -18
-26 -18 -35 0 -45 9 -30 27 15 19 52 12 56 -9z"/>
<path d="M5034 4988 c-5 -7 -8 -55 -6 -106 l3 -93 27 3 c26 3 27 6 30 70 2 57
6 70 24 79 35 19 58 -19 58 -92 0 -59 0 -59 30 -59 l30 0 0 80 c0 73 -3 83
-25 105 -26 27 -49 31 -89 15 -16 -6 -27 -6 -31 0 -9 14 -41 12 -51 -2z"/>
<path d="M5624 4987 c-3 -8 -4 -54 -2 -103 l3 -89 30 0 30 0 3 94 c3 98 -2
111 -41 111 -10 0 -20 -6 -23 -13z"/>
<path d="M5760 4988 c-17 -9 -26 -23 -28 -44 -3 -34 13 -53 61 -69 36 -12 48
-35 18 -35 -11 0 -23 5 -26 10 -8 13 -52 13 -60 0 -3 -5 5 -21 19 -35 34 -34
106 -35 136 -3 37 40 23 74 -41 97 -46 17 -64 41 -30 41 11 0 23 -4 26 -10 9
-15 55 -12 55 3 0 44 -80 71 -130 45z"/>
<path d="M5940 4922 c0 -64 4 -84 20 -105 19 -23 26 -25 100 -25 l81 0 -3 102
c-3 100 -3 101 -28 101 -24 0 -25 -3 -28 -68 -3 -61 -5 -69 -28 -79 -36 -17
-48 1 -54 80 -5 64 -6 67 -32 70 l-28 3 0 -79z"/>
<path d="M6224 4988 c-49 -22 -62 -131 -20 -173 22 -22 32 -24 103 -22 l78 2
0 100 0 100 -70 1 c-38 1 -80 -3 -91 -8z m100 -80 c8 -22 6 -32 -9 -48 -10
-11 -24 -20 -31 -20 -20 0 -44 29 -44 54 0 52 67 63 84 14z"/>
<path d="M6550 4896 l0 -106 30 0 31 0 -3 103 -3 102 -27 3 -28 3 0 -105z"/>
<path d="M6650 4975 c0 -21 5 -25 29 -25 45 0 46 -17 7 -60 -25 -28 -36 -50
-36 -70 l0 -31 78 3 c69 3 77 5 77 23 0 16 -8 21 -37 23 -47 4 -48 18 -3 62
26 25 35 42 35 67 l0 33 -75 0 c-73 0 -75 -1 -75 -25z"/>
<path d="M6874 4986 c-50 -35 -56 -126 -13 -172 24 -25 92 -34 104 -14 5 8 11
7 20 0 8 -6 24 -10 37 -8 22 3 23 6 23 103 l0 100 -30 -2 c-42 -4 -46 -4 -85
3 -23 3 -42 0 -56 -10z m88 -53 c41 -37 6 -109 -41 -84 -43 23 -31 91 18 100
3 1 13 -6 23 -16z"/>
<path d="M7244 4987 c-3 -8 -4 -54 -2 -103 l3 -89 30 0 30 0 3 94 c3 98 -2
111 -41 111 -10 0 -20 -6 -23 -13z"/>
<path d="M7394 4989 c-30 -15 -54 -61 -54 -104 0 -86 117 -129 181 -66 23 24
29 38 29 73 -1 83 -81 133 -156 97z m91 -79 c14 -43 -16 -77 -56 -65 -26 8
-27 80 -2 94 22 12 49 -2 58 -29z"/>
<path d="M7597 4994 c-4 -4 -7 -52 -7 -106 l0 -98 29 0 c28 0 29 1 33 65 5 76
23 104 56 86 18 -9 22 -22 24 -79 l3 -67 30 0 30 0 -1 79 c-1 74 -3 81 -29
104 -22 18 -35 22 -59 18 -40 -8 -46 -8 -76 -1 -14 4 -29 3 -33 -1z"/>
<path d="M7868 4989 c-54 -31 -41 -90 23 -111 50 -17 69 -45 23 -34 -72 18
-84 18 -84 5 1 -33 41 -59 92 -59 47 0 78 24 78 60 0 32 -24 54 -72 65 -16 4
-28 13 -28 21 0 16 26 19 35 4 10 -16 65 -12 65 4 0 40 -89 70 -132 45z"/>
<path d="M3637 4502 c-10 -10 -17 -25 -17 -32 0 -7 -8 -22 -17 -32 -16 -18
-16 -21 0 -47 11 -19 17 -51 17 -90 l0 -61 30 0 30 0 0 70 c0 54 4 72 15 76
21 8 19 50 -2 59 -17 6 -17 7 0 16 9 6 17 21 17 34 0 21 -5 25 -28 25 -16 0
-36 -8 -45 -18z"/>
<path d="M6360 4376 c0 -123 8 -152 33 -127 8 8 8 14 -1 23 -8 8 -12 49 -12
120 0 65 -4 108 -10 108 -6 0 -10 -48 -10 -124z"/>
<path d="M4275 4470 c3 -6 -4 -10 -16 -10 -12 0 -20 -3 -17 -6 4 -3 2 -19 -3
-36 -5 -19 -5 -37 1 -47 7 -13 9 -10 10 12 0 16 4 26 10 22 6 -4 10 5 10 19 0
23 4 26 35 26 41 0 83 -24 95 -54 8 -19 9 -18 9 7 1 17 -4 27 -13 27 -8 0 -13
8 -12 18 1 14 -7 17 -42 15 -24 -1 -40 2 -37 8 4 5 -3 9 -15 9 -12 0 -18 -4
-15 -10z"/>
<path d="M5203 4473 c-13 -5 -19 -63 -7 -63 3 0 12 7 20 15 14 13 14 16 -1 21
-13 5 -14 9 -4 15 16 9 9 18 -8 12z"/>
<path d="M5401 4458 c-1 -22 4 -28 19 -28 11 0 20 5 20 10 0 6 -6 10 -14 10
-8 0 -17 8 -19 18 -3 10 -5 6 -6 -10z"/>
<path d="M5426 4469 c2 -4 26 -11 52 -15 26 -3 53 -11 60 -16 18 -15 16 7 -3
26 -16 15 -119 20 -109 5z"/>
<path d="M5556 4450 c4 -14 10 -52 13 -84 7 -66 27 -86 35 -34 9 53 1 88 -29
117 l-27 26 8 -25z m38 -45 c3 -8 1 -15 -4 -15 -6 0 -10 7 -10 15 0 8 2 15 4
15 2 0 6 -7 10 -15z m-7 -67 c-3 -7 -5 -2 -5 12 0 14 2 19 5 13 2 -7 2 -19 0
-25z"/>
<path d="M3783 4428 c-33 -16 -57 -69 -49 -110 10 -54 48 -83 107 -83 68 0
102 34 102 101 0 40 -4 51 -31 76 -35 30 -86 37 -129 16z m81 -54 c34 -34 14
-87 -30 -82 -25 3 -29 8 -32 38 -3 24 2 38 14 47 23 17 29 16 48 -3z"/>
<path d="M3980 4340 l0 -100 30 0 c28 0 30 2 30 39 0 57 15 89 45 97 19 5 25
12 25 35 0 31 -10 35 -40 19 -13 -7 -21 -7 -25 0 -3 5 -19 10 -36 10 l-29 0 0
-100z"/>
<path d="M4495 4410 c-34 -22 -30 -25 12 -9 38 16 73 20 73 8 0 -5 8 -9 18 -9
15 1 15 2 -2 15 -27 21 -65 19 -101 -5z"/>
<path d="M4722 4418 c-16 -16 -15 -35 3 -35 8 0 12 4 10 8 -3 3 2 12 10 19 10
9 15 9 15 1 0 -6 12 -11 26 -11 22 0 25 2 14 15 -15 18 -61 20 -78 3z"/>
<path d="M4853 4423 c13 -3 16 -10 11 -25 -4 -14 -2 -18 5 -14 6 4 11 16 11
27 0 13 -6 19 -22 18 -18 -1 -19 -2 -5 -6z"/>
<path d="M4983 4415 c-13 -9 -20 -22 -17 -30 4 -8 1 -15 -5 -15 -6 0 -11 -16
-11 -35 0 -19 5 -35 11 -35 6 0 9 -6 6 -14 -3 -8 8 -21 30 -32 27 -14 37 -16
40 -6 3 6 9 10 13 7 10 -6 50 16 50 27 0 5 -7 8 -16 8 -8 0 -12 -4 -9 -10 4
-6 -13 -10 -44 -10 -28 0 -50 3 -49 8 1 4 -4 20 -10 35 -9 22 -9 33 0 50 7 12
11 25 10 30 -1 4 9 7 23 7 14 0 25 5 25 11 0 7 10 9 26 5 17 -5 23 -3 19 4 -9
15 -68 12 -92 -5z"/>
<path d="M5160 4415 c0 -8 5 -15 10 -15 6 0 10 7 10 15 0 8 -4 15 -10 15 -5 0
-10 -7 -10 -15z"/>
<path d="M5237 4423 c-13 -12 -7 -23 13 -23 11 0 20 7 20 15 0 15 -21 21 -33
8z"/>
<path d="M5706 4417 c-9 -7 -19 -24 -20 -37 -2 -14 -7 -33 -11 -42 -5 -12 -3
-18 6 -18 12 0 12 -2 1 -9 -30 -19 45 -82 80 -68 7 3 3 6 -9 6 -13 1 -23 6
-23 11 0 6 -7 10 -16 10 -8 0 -13 4 -10 9 3 4 1 22 -4 40 -5 18 -5 31 0 31 5
0 7 6 5 13 -7 19 30 56 54 54 11 -1 24 -9 27 -19 3 -10 10 -18 15 -18 6 0 7
-9 4 -20 -5 -16 -2 -20 17 -20 17 0 19 3 9 9 -11 7 -11 9 0 13 10 4 6 14 -15
37 -32 34 -78 41 -110 18z"/>
<path d="M5896 4403 c9 -37 14 -42 14 -14 0 12 4 19 10 16 6 -3 10 1 10 9 0 9
-9 16 -20 16 -17 0 -19 -4 -14 -27z"/>
<path d="M6039 4413 c-2 -33 -4 -38 -14 -40 -15 -3 -26 -66 -13 -74 12 -8 2
-29 -13 -29 -6 0 -7 5 -4 10 3 6 1 10 -4 10 -6 0 -11 -7 -11 -16 0 -8 -4 -13
-10 -9 -5 3 -7 12 -4 19 3 8 1 17 -4 20 -15 9 -23 -37 -9 -51 7 -6 24 -9 39
-6 29 6 42 36 33 81 -4 22 -4 23 4 7 10 -23 15 -15 30 53 7 34 6 42 -5 42 -8
0 -15 -8 -15 -17z"/>
<path d="M6172 4423 c-16 -6 -6 -23 14 -23 8 0 13 4 9 9 -3 5 7 12 22 14 l28
4 -30 1 c-16 0 -36 -2 -43 -5z"/>
<path d="M6535 4420 c5 -9 2 -10 -12 -6 -12 4 -25 0 -35 -11 -26 -31 -30 -43
-14 -43 8 0 18 9 21 20 4 13 15 20 31 20 13 0 24 5 24 10 0 6 5 10 11 10 5 0
7 -4 4 -10 -4 -6 6 -10 21 -10 37 0 20 17 -25 26 -26 6 -32 4 -26 -6z"/>
<path d="M6710 4403 c1 -27 1 -27 15 -9 19 25 19 36 0 36 -10 0 -15 -10 -15
-27z"/>
<path d="M6786 4415 c-3 -8 -13 -15 -21 -15 -9 0 -13 -5 -10 -10 5 -8 11 -7
21 1 8 6 25 9 38 7 29 -6 51 5 42 21 -11 16 -63 13 -70 -4z"/>
<path d="M7007 4419 c8 -8 16 -8 30 0 16 9 14 10 -11 11 -22 0 -27 -3 -19 -11z"/>
<path d="M7190 4420 c0 -5 7 -7 15 -4 8 4 15 8 15 10 0 2 -7 4 -15 4 -8 0 -15
-4 -15 -10z"/>
<path d="M7380 4414 c0 -13 3 -14 14 -5 10 8 20 8 40 -2 14 -8 23 -17 19 -20
-3 -4 1 -7 11 -7 13 0 15 4 7 19 -18 33 -91 45 -91 15z"/>
<path d="M5402 4338 c1 -71 2 -77 8 -38 4 25 8 37 8 28 3 -30 19 -20 25 15 3
20 0 36 -9 43 -10 8 -11 13 -2 22 9 9 7 12 -10 12 -21 0 -22 -4 -20 -82z"/>
<path d="M6254 4389 c3 -17 6 -35 6 -40 0 -5 3 -9 8 -9 6 0 7 31 3 73 -1 4 -6
7 -12 7 -8 0 -9 -11 -5 -31z"/>
<path d="M7060 4414 c0 -4 7 -12 15 -18 9 -6 17 -21 18 -34 1 -24 5 -26 27
-12 12 7 12 10 1 10 -7 0 -11 6 -8 14 3 7 -3 20 -14 30 -20 16 -39 21 -39 10z"/>
<path d="M7351 4406 c-14 -17 5 -66 26 -66 17 0 17 8 -1 26 -8 7 -12 23 -9 34
6 23 0 26 -16 6z"/>
<path d="M4367 4397 c-7 -19 8 -43 17 -28 4 6 3 11 -3 11 -6 0 -8 7 -5 15 4 8
4 15 1 15 -3 0 -7 -6 -10 -13z"/>
<path d="M6867 4389 c-10 -38 -8 -91 3 -84 6 3 10 2 10 -4 0 -26 -85 -42 -106
-21 -17 17 -64 -6 -64 -30 0 -12 4 -19 9 -16 5 4 12 0 14 -6 3 -7 6 -1 6 15 1
32 24 36 53 10 18 -16 21 -16 55 2 41 22 57 55 47 99 -10 50 -20 62 -27 35z
m20 -61 c-3 -8 -6 -5 -6 6 -1 11 2 17 5 13 3 -3 4 -12 1 -19z"/>
<path d="M6962 4390 c-15 -24 -16 -40 -2 -40 6 0 10 8 10 18 0 10 5 23 12 30
7 7 8 12 2 12 -5 0 -15 -9 -22 -20z"/>
<path d="M7230 4400 c-29 -4 -36 -10 -38 -32 -3 -22 1 -28 15 -27 10 0 13 3 6
6 -18 7 -16 43 2 43 8 0 15 -4 15 -8 0 -5 14 -7 30 -4 17 2 30 9 30 14 0 5 -4
7 -9 4 -5 -4 -11 -3 -13 2 -1 4 -19 5 -38 2z"/>
<path d="M6136 4382 c-8 -24 -3 -37 12 -31 4 2 5 15 2 29 l-6 25 -8 -23z"/>
<path d="M6603 4393 c-10 -3 -10 -10 -1 -26 11 -21 11 -21 20 -2 6 14 7 12 2
-10 -3 -16 -11 -33 -17 -37 -7 -4 -7 -8 -2 -8 24 0 36 19 33 50 -3 34 -13 43
-35 33z"/>
<path d="M4468 4368 c-6 -49 -3 -70 8 -75 8 -3 12 -8 10 -12 -3 -4 4 -12 15
-19 11 -7 19 -8 19 -2 0 5 -5 10 -11 10 -5 0 -7 5 -4 10 3 6 1 10 -4 10 -6 0
-11 11 -11 25 0 21 5 25 33 26 31 2 31 2 4 6 -16 3 -31 11 -34 19 -6 17 -22
18 -25 2z"/>
<path d="M5191 4333 c0 -27 3 -41 6 -33 4 8 13 21 21 29 9 10 11 16 4 19 -6 2
-8 10 -5 18 3 8 -1 14 -11 14 -13 0 -16 -10 -15 -47z"/>
<path d="M6732 4360 c0 -14 2 -19 5 -12 2 6 2 18 0 25 -3 6 -5 1 -5 -13z"/>
<path d="M4253 4343 c-14 -30 -13 -35 6 -24 7 5 11 18 9 30 -3 19 -4 19 -15
-6z"/>
<path d="M4337 4364 c-3 -3 -3 -13 0 -22 4 -15 3 -15 -10 1 -8 9 -20 17 -26
17 -17 0 21 -49 38 -50 11 0 11 -3 0 -16 -12 -15 -11 -16 9 -10 21 7 33 -8 12
-16 -5 -1 -6 -8 -2 -15 4 -7 13 -9 21 -4 10 7 9 16 -6 47 -11 22 -18 47 -15
57 3 16 -8 23 -21 11z"/>
<path d="M4621 4354 c0 -11 3 -14 6 -6 3 7 2 16 -1 19 -3 4 -6 -2 -5 -13z"/>
<path d="M4855 4349 c-17 -17 -17 -21 -5 -29 24 -16 30 -12 30 20 0 35 1 35
-25 9z"/>
<path d="M6713 4335 c0 -22 2 -30 4 -17 2 12 2 30 0 40 -3 9 -5 -1 -4 -23z"/>
<path d="M4576 4341 c-4 -5 3 -7 14 -4 23 6 26 13 6 13 -8 0 -17 -4 -20 -9z"/>
<path d="M4706 4341 c-4 -7 -5 -15 -2 -18 9 -9 19 4 14 18 -4 11 -6 11 -12 0z"/>
<path d="M6460 4335 c0 -8 5 -15 10 -15 6 0 10 7 10 15 0 8 -4 15 -10 15 -5 0
-10 -7 -10 -15z"/>
<path d="M6981 4334 c0 -11 3 -14 6 -6 3 7 2 16 -1 19 -3 4 -6 -2 -5 -13z"/>
<path d="M6120 4330 c0 -5 7 -10 15 -10 8 0 15 5 15 10 0 6 -7 10 -15 10 -8 0
-15 -4 -15 -10z"/>
<path d="M7415 4330 c3 -5 13 -10 21 -10 8 0 14 -4 14 -10 0 -5 7 -10 15 -10
21 0 19 17 -4 30 -25 13 -54 13 -46 0z"/>
<path d="M5931 4314 c0 -11 3 -14 6 -6 3 7 2 16 -1 19 -3 4 -6 -2 -5 -13z"/>
<path d="M6730 4310 c0 -19 3 -21 12 -12 9 9 9 15 0 24 -9 9 -12 7 -12 -12z"/>
<path d="M6950 4313 c0 -5 7 -17 15 -27 15 -20 20 -10 9 18 -6 16 -24 22 -24
9z"/>
<path d="M7198 4313 c7 -3 16 -2 19 1 4 3 -2 6 -13 5 -11 0 -14 -3 -6 -6z"/>
<path d="M4255 4299 c-4 -6 -4 -13 -1 -16 3 -3 1 -12 -5 -20 -9 -10 -8 -13 5
-13 11 0 16 9 16 30 0 32 -4 37 -15 19z"/>
<path d="M4708 4280 c20 -34 31 -39 29 -11 0 11 -4 18 -8 15 -4 -2 -9 3 -13
11 -3 8 -10 15 -15 15 -6 0 -2 -13 7 -30z"/>
<path d="M4838 4302 c7 -5 10 -16 7 -24 -8 -20 13 -34 28 -19 8 8 8 11 0 11
-6 0 -10 8 -9 17 0 10 -7 19 -19 21 -14 2 -16 0 -7 -6z"/>
<path d="M6130 4300 c0 -17 40 -51 52 -44 7 5 4 10 -10 15 -12 5 -22 11 -22
14 0 4 4 3 10 0 6 -3 7 1 4 9 -7 18 -34 22 -34 6z"/>
<path d="M6470 4304 c0 -18 23 -44 40 -44 30 0 34 19 5 26 -14 3 -25 10 -25
15 0 5 -4 9 -10 9 -5 0 -10 -3 -10 -6z"/>
<path d="M5420 4286 c0 -17 14 -29 23 -20 8 8 -3 34 -14 34 -5 0 -9 -6 -9 -14z"/>
<path d="M6580 4284 c-25 -15 -25 -15 -1 -8 15 4 21 2 17 -4 -4 -6 2 -8 14 -5
12 3 19 10 17 16 -5 17 -20 17 -47 1z"/>
<path d="M7193 4272 c3 -32 21 -36 25 -6 2 12 -4 24 -12 27 -11 4 -14 -1 -13
-21z"/>
<path d="M4583 4271 c-7 -11 -23 -21 -35 -24 l-23 -4 23 -2 c24 -1 72 25 72
40 0 16 -25 9 -37 -10z"/>
<path d="M5202 4281 c-10 -6 -8 -11 10 -22 24 -16 58 -14 58 2 0 6 -4 8 -9 5
-5 -3 -14 1 -21 9 -14 17 -20 18 -38 6z"/>
<path d="M5503 4274 c-18 -8 -33 -19 -33 -25 0 -15 42 -1 58 19 10 14 14 14
21 3 5 -8 11 -9 15 -3 4 8 -18 26 -27 21 -1 0 -17 -7 -34 -15z"/>
<path d="M5810 4280 c0 -5 -10 -10 -22 -10 -17 0 -19 -3 -10 -12 10 -10 17 -7
34 10 12 12 17 22 10 22 -6 0 -12 -4 -12 -10z"/>
<path d="M6246 4273 c-3 -7 -15 -13 -26 -13 -11 0 -20 -4 -20 -10 0 -5 6 -10
13 -10 13 0 77 37 77 44 0 11 -40 1 -44 -11z"/>
<path d="M7075 4280 c4 -6 -12 -10 -39 -10 -25 0 -46 -4 -46 -10 0 -10 76 -7
103 4 23 11 22 26 -4 26 -11 0 -17 -4 -14 -10z"/>
<path d="M7347 4283 c-4 -3 2 -13 14 -21 11 -8 23 -11 27 -7 4 4 1 10 -6 12
-6 3 -10 9 -6 14 6 10 -19 12 -29 2z"/>
<path d="M7469 4273 c-13 -16 -12 -17 4 -4 16 13 21 21 13 21 -2 0 -10 -8 -17
-17z"/>
<path d="M4785 4270 c-3 -5 1 -10 10 -10 9 0 13 5 10 10 -3 6 -8 10 -10 10 -2
0 -7 -4 -10 -10z"/>
<path d="M7421 4259 c-13 -11 -18 -19 -10 -19 21 0 42 16 38 28 -2 6 -14 2
-28 -9z"/>
<path d="M4755 4250 c-3 -5 1 -10 10 -10 9 0 13 5 10 10 -3 6 -8 10 -10 10 -2
0 -7 -4 -10 -10z"/>
<path d="M6535 4250 c-3 -5 3 -10 15 -10 12 0 18 5 15 10 -3 6 -10 10 -15 10
-5 0 -12 -4 -15 -10z"/>
<path d="M6710 4188 c0 -10 6 -18 13 -18 8 0 7 -4 -3 -10 -13 -8 -12 -10 3
-10 21 0 22 10 2 36 -13 17 -14 17 -15 2z"/>
<path d="M8599 2646 c-64 -23 -107 -56 -143 -111 -20 -29 -36 -57 -36 -62 0
-4 -5 -15 -10 -23 -8 -13 -11 -12 -24 5 -9 11 -16 14 -16 8 0 -7 -7 -13 -15
-13 -20 0 -19 -5 7 -40 20 -28 21 -34 11 -88 -7 -31 -24 -94 -40 -140 l-28
-82 -65 2 -64 3 -9 35 c-17 65 -29 90 -46 90 -20 0 -34 -22 -52 -82 l-13 -48
-2848 0 -2848 0 0 -34 c0 -19 -4 -37 -9 -40 -14 -9 -254 103 -278 130 -27 29
-29 52 -8 60 20 8 19 24 -2 40 -23 17 -33 17 -33 0 0 -34 -22 -23 -66 33 -51
66 -93 91 -151 90 -78 -1 -192 -69 -231 -139 -20 -34 -20 -36 -2 -58 16 -19
25 -22 59 -16 30 5 41 11 41 24 0 32 12 50 41 65 77 40 159 -17 159 -111 0
-48 -57 -107 -120 -125 -60 -17 -182 -18 -187 -1 -3 6 -10 12 -16 12 -7 0 -23
17 -36 38 -45 70 -291 380 -322 406 -32 28 -65 34 -71 14 -31 -91 365 -927
585 -1238 25 -36 59 -81 75 -100 30 -35 30 -34 -8 43 -69 143 -171 472 -170
551 0 33 48 103 86 127 31 19 40 20 56 10 23 -15 31 -10 22 13 -5 12 -15 15
-41 12 -43 -4 -110 10 -142 31 -33 21 -16 29 76 32 43 1 110 8 148 16 39 8 76
15 83 15 25 0 11 -20 -29 -40 -49 -26 -47 -33 6 -19 21 6 71 9 109 7 67 -4 76
-7 156 -60 47 -31 115 -82 153 -113 l67 -55 0 -525 c0 -354 -3 -526 -10 -530
-8 -5 -8 -11 0 -20 6 -7 10 -28 9 -47 -2 -18 -2 -160 -1 -315 l2 -283 140 0
140 0 0 29 c0 16 6 33 13 38 15 13 655 25 747 15 l65 -7 3 -38 3 -37 2640 0
2639 0 2 323 c2 456 1 436 18 447 13 8 12 10 -2 10 -17 0 -18 40 -20 663 l-3
662 -70 -3 c-76 -4 -82 11 -10 26 40 8 39 8 -57 31 -124 28 -138 43 -78 84 19
13 47 17 121 17 74 0 117 6 183 25 47 14 88 25 90 25 1 0 13 -9 26 -20 l23
-20 -28 -30 c-16 -17 -51 -41 -79 -55 l-50 -25 47 0 c111 0 212 -38 246 -93
66 -107 238 -498 282 -641 28 -93 40 -87 15 7 -7 29 -19 76 -26 106 l-13 54
41 33 c55 46 79 98 92 198 15 106 -1 302 -31 392 -22 67 -82 147 -107 142 -20
-4 -30 -37 -31 -108 -2 -123 -46 -300 -74 -300 -14 0 -82 76 -138 155 -62 87
-127 209 -150 281 -12 38 -28 82 -37 98 -13 27 -15 28 -25 11 -7 -14 -6 -21 9
-32 17 -12 17 -16 4 -40 -27 -48 -65 -67 -139 -71 -115 -7 -201 49 -201 131 0
38 40 77 80 77 36 0 80 -38 80 -71 0 -17 4 -20 23 -15 12 3 34 6 50 6 23 0 27
4 27 29 0 29 21 57 33 44 4 -3 7 -1 7 5 0 19 -80 71 -133 87 -61 18 -100 18
-148 1z m-5814 -687 c5 -6 5 -9 0 -10 -101 -7 -145 -4 -145 11 0 5 7 10 16 12
29 5 119 -3 129 -13z m4525 -102 c707 -1 1291 -6 1298 -10 9 -6 12 -190 12
-862 0 -763 -2 -855 -16 -869 -14 -14 -164 -16 -1508 -16 -1183 0 -1496 3
-1504 12 -15 20 -24 1724 -9 1737 22 17 52 19 247 14 107 -2 773 -5 1480 -6z
m-4383 -77 c23 0 33 -4 30 -12 -5 -18 -167 -18 -167 -1 0 14 35 22 74 17 16
-2 44 -4 63 -4z m-159 -11 c-4 -12 -72 -21 -100 -13 -39 11 -15 24 43 24 40 0
59 -4 57 -11z m700 -182 l-3 -122 -404 -3 c-320 -2 -406 0 -413 10 -9 15 -10
147 -2 200 l7 38 196 2 c108 2 292 2 409 0 l213 -3 -3 -122z m-793 -297 c-5
-8 -11 -8 -17 -2 -6 6 -7 16 -3 22 5 8 11 8 17 2 6 -6 7 -16 3 -22z m98 15
c-2 -5 -7 -11 -13 -11 -5 -1 -11 -2 -12 -4 -20 -15 -65 1 -53 19 8 14 81 10
78 -4z m585 -152 c3 -81 2 -83 -23 -89 -13 -3 -159 -4 -322 0 -164 3 -313 5
-330 6 l-33 0 0 85 0 85 353 -2 352 -3 3 -82z m-598 -205 c-28 -12 -50 -11
-64 3 -6 5 9 9 40 8 44 0 47 -1 24 -11z m598 -150 l3 -88 -324 0 c-179 0 -339
3 -356 6 l-31 7 0 77 c0 42 3 80 7 83 4 4 162 6 352 5 l346 -3 3 -87z m388
-94 c7 -28 -16 -61 -35 -50 -10 6 -6 47 6 69 9 15 23 6 29 -19z m-66 -59 c12
-15 5 -55 -11 -55 -5 0 -9 7 -9 16 0 9 -7 14 -17 12 -15 -3 -19 -19 -25 -102
-4 -55 -9 -105 -12 -113 -8 -20 -24 -16 -28 7 -3 22 -22 28 -24 7 -3 -32 -8
-28 -14 13 -6 37 -7 33 -4 -20 2 -36 8 -66 14 -68 18 -6 11 -28 -10 -29 -11
-1 -20 4 -20 13 0 8 -4 14 -10 14 -5 0 -10 12 -10 26 0 14 4 23 9 20 4 -3 7 5
5 17 -12 86 -11 117 3 117 13 0 13 3 2 16 -23 28 -61 37 -149 35 -61 -1 -81 1
-70 8 25 17 167 13 206 -5 19 -9 37 -14 40 -12 9 10 -51 42 -75 40 -14 -1 -35
5 -47 13 -13 8 -31 15 -41 15 -17 1 -17 1 1 11 13 8 20 8 26 -1 4 -6 18 -11
31 -10 64 6 98 0 93 -15 -4 -10 0 -15 11 -15 9 0 13 5 10 10 -3 6 -3 19 0 30
5 17 15 20 59 20 35 0 58 -5 66 -15z m-885 -45 c0 -11 -12 -15 -45 -16 -53 -2
-65 3 -51 20 15 18 96 15 96 -4z m163 -3 c3 -17 -3 -18 -67 -15 -39 2 -71 8
-71 13 0 6 4 10 9 10 5 0 13 4 17 8 5 4 31 7 59 5 39 -2 51 -7 53 -21z m-280
2 c-2 -6 -8 -10 -13 -10 -5 0 -11 4 -13 10 -2 6 4 11 13 11 9 0 15 -5 13 -11z
m798 -60 c13 -11 15 -32 12 -114 -1 -55 1 -101 6 -102 5 -1 12 -6 15 -12 4 -6
18 -13 31 -15 14 -2 26 -5 28 -5 5 -2 -38 -40 -62 -56 -14 -9 -27 -26 -29 -38
-2 -12 -5 -1 -6 24 -1 35 3 48 16 53 13 5 14 9 3 19 -10 9 -13 9 -17 0 -3 -10
-41 -13 -139 -13 -81 0 -133 -4 -129 -9 3 -5 1 -12 -5 -16 -16 -10 -12 -28 5
-21 17 6 20 -5 5 -20 -23 -23 13 -33 80 -24 99 15 160 13 160 -4 0 -8 8 -17
18 -20 9 -2 1 -2 -20 1 -31 4 -36 2 -35 -14 2 -13 -4 -17 -18 -15 -11 2 -24 3
-30 2 -5 -1 -40 -4 -77 -6 -85 -7 -90 -20 -7 -17 33 1 69 -1 79 -5 11 -4 -46
-8 -126 -10 -90 -1 -143 2 -139 8 3 5 11 7 18 5 7 -2 28 0 47 4 l35 9 -30 2
c-29 2 -29 2 12 16 29 11 40 20 36 30 -6 16 -33 19 -33 4 0 -16 -57 -12 -64 5
-6 17 9 21 19 5 10 -16 23 -11 30 11 5 16 9 18 15 9 5 -8 8 3 7 27 l-2 40
-264 6 c-196 5 -267 10 -273 19 -11 16 -6 223 5 235 5 4 151 10 325 13 412 6
479 5 498 -11z m-326 -294 c0 -8 -7 -15 -16 -15 -14 0 -14 3 -4 15 7 8 14 15
16 15 2 0 4 -7 4 -15z m288 -7 c3 -14 -6 -16 -52 -16 -31 0 -56 5 -56 9 0 5
-12 10 -27 10 l-28 1 30 8 c17 5 52 7 80 7 38 -2 51 -6 53 -19z m-181 6 c-3
-3 -12 -4 -19 -1 -8 3 -5 6 6 6 11 1 17 -2 13 -5z m-299 -98 c7 -4 12 -14 12
-22 0 -12 -23 -14 -137 -12 -115 3 -138 6 -138 18 0 12 17 15 92 15 51 1 95 3
98 6 7 8 59 4 73 -5z m-278 -17 c0 -5 -7 -9 -15 -9 -15 0 -20 12 -9 23 8 8 24
-1 24 -14z"/>
<path d="M6527 1624 c-4 -4 -7 -288 -7 -631 l0 -623 120 0 120 0 -2 628 -3
627 -111 3 c-60 1 -113 -1 -117 -4z"/>
<path d="M7059 1363 c0 -82 -3 -328 -5 -548 -2 -220 -2 -410 1 -422 5 -22 9
-23 125 -23 l120 0 0 570 0 570 -120 0 -120 0 -1 -147z"/>
<path d="M7602 1362 c-10 -7 -12 -113 -10 -498 l3 -489 120 0 120 0 3 489 c2
385 0 491 -10 498 -17 10 -209 10 -226 0z"/>
<path d="M6797 1303 c-4 -3 -7 -215 -7 -470 l0 -463 120 0 120 0 0 464 c0 414
-2 465 -16 470 -21 8 -209 8 -217 -1z"/>
<path d="M7325 1248 c-3 -7 -4 -206 -3 -443 l3 -430 120 0 120 0 0 440 0 440
-118 3 c-88 2 -119 -1 -122 -10z"/>
<path d="M3582 470 c0 -14 2 -19 5 -12 2 6 2 18 0 25 -3 6 -5 1 -5 -13z"/>
<path d="M8642 2503 c-15 -6 -6 -23 14 -23 8 0 14 7 14 15 0 15 -6 17 -28 8z"/>
<path d="M8866 2455 c-3 -8 -1 -15 4 -15 6 0 10 7 10 15 0 8 -2 15 -4 15 -2 0
-6 -7 -10 -15z"/>
<path d="M1736 2233 c-11 -11 -6 -23 9 -23 8 0 15 4 15 9 0 13 -16 22 -24 14z"/>
<path d="M1709 2143 c-13 -16 -12 -17 4 -4 16 13 21 21 13 21 -2 0 -10 -8 -17
-17z"/>
<path d="M8736 2141 c-3 -4 6 -13 19 -19 22 -10 25 -9 25 8 0 20 -33 29 -44
11z"/>
<path d="M1638 2103 c7 -3 16 -2 19 1 4 3 -2 6 -13 5 -11 0 -14 -3 -6 -6z"/>
<path d="M8795 2050 c3 -5 8 -10 11 -10 2 0 4 5 4 10 0 6 -5 10 -11 10 -5 0
-7 -4 -4 -10z"/>
<path d="M1842 1798 c6 -18 28 -21 28 -4 0 9 -7 16 -16 16 -9 0 -14 -5 -12
-12z"/>
<path d="M1750 1772 c0 -14 11 -21 26 -15 21 8 17 23 -6 23 -11 0 -20 -4 -20
-8z"/>
<path d="M9469 1133 c-11 -2 -18 -17 -21 -39 -5 -41 0 -42 35 -6 41 42 35 59
-14 45z"/>
<path d="M9229 1014 c-20 -21 -87 -62 -167 -102 -92 -46 -138 -75 -147 -92 -7
-14 -23 -35 -35 -47 -21 -23 -21 -23 0 -23 11 0 20 -7 20 -15 0 -12 10 -14 58
-9 57 6 165 20 235 31 l37 6 0 -52 0 -51 278 2 277 3 3 104 c2 77 -1 107 -10
113 -7 4 -48 8 -90 8 -60 0 -79 3 -86 16 -8 15 -10 15 -15 0 -5 -13 -24 -16
-107 -16 -56 0 -109 4 -118 9 -15 8 -34 40 -73 124 -7 15 -15 27 -19 27 -3 0
-22 -16 -41 -36z m45 -169 c-4 -8 -10 -15 -15 -15 -4 0 -6 7 -3 15 4 8 10 15
15 15 4 0 6 -7 3 -15z m193 9 c-3 -3 -12 -4 -19 -1 -8 3 -5 6 6 6 11 1 17 -2
13 -5z m-190 -166 c-3 -8 -6 -5 -6 6 -1 11 2 17 5 13 3 -3 4 -12 1 -19z"/>
<path d="M9368 1023 c7 -3 16 -2 19 1 4 3 -2 6 -13 5 -11 0 -14 -3 -6 -6z"/>
<path d="M2220 734 c55 -51 61 -68 29 -85 -34 -17 -8 -29 38 -17 l42 10 -72
69 c-40 38 -75 69 -79 69 -4 0 15 -21 42 -46z"/>
<path d="M8915 660 c-3 -5 -1 -10 4 -10 6 0 11 5 11 10 0 6 -2 10 -4 10 -3 0
-8 -4 -11 -10z"/>
</g>
</svg>
